<?xml version="1.0" encoding="utf-8"?>
<!-- Generator: Adobe Illustrator 24.3.0, SVG Export Plug-In . SVG Version: 6.00 Build 0)  -->
<svg version="1.1" id="Layer_1" xmlns="http://www.w3.org/2000/svg" xmlns:xlink="http://www.w3.org/1999/xlink" x="0px" y="0px"
	 viewBox="0 0 421.5 446" style="enable-background:new 0 0 421.5 446;" xml:space="preserve">
<style type="text/css">
	.st0{fill:#DDDDDD;stroke:#8672CE;stroke-width:26;stroke-miterlimit:10;}
	.st1{fill:#E96AFC;}
	.st2{fill:#544258;}
	.st3{opacity:0.5;fill:#5C3BA3;}
	.st4{fill:#A96CA2;}
	.st5{fill:#2D062A;}
	.st6{fill:#FFFFFF;}
	.st7{fill:#8973C6;}
	.st8{fill:none;stroke:#7863C6;stroke-width:26;stroke-miterlimit:10;}
	.st9{fill:#FFFFFF;stroke:#281266;stroke-width:5;stroke-miterlimit:10;}
	.st10{fill:#513099;}
</style>
<circle class="st0" cx="210.8" cy="232.4" r="197.8"/>
<ellipse transform="matrix(0.9983 -5.766948e-02 5.766948e-02 0.9983 -11.8729 7.8541)" class="st1" cx="130.1" cy="209.6" rx="22.3" ry="26.4"/>
<ellipse transform="matrix(0.9983 -5.766948e-02 5.766948e-02 0.9983 -13.8041 7.6696)" class="st1" cx="126" cy="243" rx="22.3" ry="26.4"/>
<ellipse transform="matrix(0.9983 -5.766948e-02 5.766948e-02 0.9983 -12.6093 6.6876)" class="st1" cx="109.6" cy="221.8" rx="22.3" ry="26.4"/>
<ellipse transform="matrix(0.9983 -5.766948e-02 5.766948e-02 0.9983 -11.3794 5.6386)" class="st1" cx="92" cy="200" rx="22.3" ry="26.4"/>
<ellipse transform="matrix(0.3443 -0.9389 0.9389 0.3443 -161.1195 240.693)" class="st1" cx="91.8" cy="235.7" rx="26.4" ry="22.3"/>
<ellipse transform="matrix(0.3443 -0.9389 0.9389 0.3443 -195.5366 264.7297)" class="st1" cx="91.8" cy="272.4" rx="26.4" ry="22.3"/>
<ellipse transform="matrix(0.3443 -0.9389 0.9389 0.3443 -218.6352 294.8231)" class="st1" cx="101.8" cy="303.9" rx="26.4" ry="22.3"/>
<ellipse transform="matrix(0.3443 -0.9389 0.9389 0.3443 -230.5385 317.9203)" class="st1" cx="112.3" cy="324" rx="26.4" ry="22.3"/>
<ellipse transform="matrix(0.3443 -0.9389 0.9389 0.3443 -256.7597 353.3132)" class="st1" cx="124.6" cy="360.5" rx="26.4" ry="22.3"/>
<ellipse transform="matrix(0.9983 -5.766948e-02 5.766948e-02 0.9983 -15.834 7.3717)" class="st1" cx="119.8" cy="278" rx="22.3" ry="26.4"/>
<ellipse transform="matrix(4.305388e-02 -0.9991 0.9991 4.305388e-02 -186.5977 428.0373)" class="st1" cx="130.1" cy="311.4" rx="26.4" ry="22.3"/>
<ellipse transform="matrix(0.9983 -5.766948e-02 5.766948e-02 0.9983 -14.4832 16.7295)" class="st1" cx="282.6" cy="259.3" rx="22.3" ry="26.4"/>
<ellipse transform="matrix(0.9983 -5.766948e-02 5.766948e-02 0.9983 -17.6073 17.288)" class="st1" cx="290.7" cy="313.7" rx="22.3" ry="26.4"/>
<ellipse transform="matrix(0.9983 -5.766948e-02 5.766948e-02 0.9983 -19.2654 17.5386)" class="st1" cx="294.2" cy="342.6" rx="22.3" ry="26.4"/>
<ellipse transform="matrix(0.9983 -5.766948e-02 5.766948e-02 0.9983 -16.7387 16.3839)" class="st1" cx="275.5" cy="298.2" rx="22.3" ry="26.4"/>
<ellipse transform="matrix(0.9983 -5.766948e-02 5.766948e-02 0.9983 -13.5094 17.8814)" class="st1" cx="303.1" cy="243" rx="22.3" ry="26.4"/>
<ellipse transform="matrix(0.1759 -0.9844 0.9844 0.1759 79.2913 436.3035)" class="st1" cx="300.2" cy="170.8" rx="37.7" ry="44.3"/>
<ellipse transform="matrix(0.1759 -0.9844 0.9844 0.1759 96.7559 417.8425)" class="st1" cx="297.9" cy="151.1" rx="37.7" ry="44.3"/>
<ellipse transform="matrix(0.9983 -5.766948e-02 5.766948e-02 0.9983 -6.7809 17.161)" class="st1" cx="293.9" cy="126.1" rx="22.3" ry="26.4"/>
<ellipse transform="matrix(0.9983 -5.766948e-02 5.766948e-02 0.9983 -14.9699 17.8444)" class="st1" cx="301.7" cy="268.3" rx="22.3" ry="26.4"/>
<ellipse transform="matrix(0.9983 -5.766948e-02 5.766948e-02 0.9983 -15.8258 17.8691)" class="st1" cx="301.7" cy="283.1" rx="26.1" ry="30.8"/>
<ellipse transform="matrix(0.9983 -5.766948e-02 5.766948e-02 0.9983 -17.7677 17.709)" class="st1" cx="297.9" cy="316.7" rx="26.1" ry="30.8"/>
<ellipse transform="matrix(0.9188 -0.3948 0.3948 0.9188 -63.2688 145.9047)" class="st1" cx="322.9" cy="226.7" rx="19.6" ry="30.8"/>
<ellipse transform="matrix(0.9188 -0.3948 0.3948 0.9188 -63.6814 128.7281)" class="st1" cx="280.9" cy="219.1" rx="19.6" ry="30.8"/>
<ellipse transform="matrix(0.9188 -0.3948 0.3948 0.9188 -76.2963 147.0821)" class="st1" cx="319.2" cy="258.9" rx="19.6" ry="30.8"/>
<ellipse transform="matrix(0.9188 -0.3948 0.3948 0.9188 -88.1029 152.2952)" class="st1" cx="326" cy="290.2" rx="19.6" ry="30.8"/>
<ellipse transform="matrix(0.9188 -0.3948 0.3948 0.9188 -101.1648 153.0671)" class="st1" cx="321.3" cy="322.3" rx="19.6" ry="30.8"/>
<ellipse transform="matrix(0.9188 -0.3948 0.3948 0.9188 -113.0693 158.0426)" class="st1" cx="327.5" cy="353.8" rx="19.6" ry="30.8"/>
<ellipse transform="matrix(0.9983 -5.766948e-02 5.766948e-02 0.9983 -13.7641 17.7258)" class="st1" cx="300.2" cy="247.3" rx="29" ry="30.6"/>
<ellipse transform="matrix(0.9983 -5.766948e-02 5.766948e-02 0.9983 -12.6777 18.6018)" class="st1" cx="316" cy="229" rx="29" ry="30.6"/>
<ellipse transform="matrix(0.1016 -0.9948 0.9948 0.1016 83.7823 506.7192)" class="st1" cx="322.4" cy="207" rx="26.4" ry="22.3"/>
<ellipse transform="matrix(0.9983 -5.766948e-02 5.766948e-02 0.9983 -18.5907 16.0271)" class="st1" cx="268.4" cy="330.1" rx="22.3" ry="26.4"/>
<ellipse transform="matrix(0.9983 -5.766948e-02 5.766948e-02 0.9983 -15.0654 6.657)" class="st1" cx="107.8" cy="264.3" rx="22.3" ry="26.4"/>
<ellipse transform="matrix(0.9983 -5.766948e-02 5.766948e-02 0.9983 -17.8261 8.3706)" class="st1" cx="136.1" cy="313" rx="22.3" ry="26.4"/>
<ellipse transform="matrix(0.9983 -5.766948e-02 5.766948e-02 0.9983 -18.298 9.3287)" class="st1" cx="152.5" cy="321.7" rx="22.3" ry="26.4"/>
<ellipse transform="matrix(0.9983 -5.766948e-02 5.766948e-02 0.9983 -20.1239 8.6713)" class="st1" cx="140.2" cy="353" rx="22.3" ry="26.4"/>
<ellipse transform="matrix(0.9983 -5.766948e-02 5.766948e-02 0.9983 -13.7717 8.7915)" class="st1" cx="145.4" cy="243" rx="22.3" ry="19.1"/>
<ellipse transform="matrix(0.9983 -5.766948e-02 5.766948e-02 0.9983 -14.8048 9.6596)" class="st1" cx="160" cy="261.3" rx="22.3" ry="19.1"/>
<ellipse transform="matrix(0.9983 -5.766948e-02 5.766948e-02 0.9983 -12.6453 18.9755)" class="st1" cx="322.4" cy="228.6" rx="22.3" ry="19.1"/>
<ellipse transform="matrix(0.9983 -5.766948e-02 5.766948e-02 0.9983 -20.6207 18.0866)" class="st1" cx="303.1" cy="366.3" rx="22.3" ry="19.1"/>
<ellipse transform="matrix(0.9983 -5.766948e-02 5.766948e-02 0.9983 -10.2481 17.896)" class="st1" cx="304.9" cy="186.5" rx="22.3" ry="19.1"/>
<ellipse transform="matrix(0.9983 -5.766948e-02 5.766948e-02 0.9983 -13.14 16.0717)" class="st1" cx="271.9" cy="235.7" rx="22.3" ry="19.1"/>
<ellipse transform="matrix(0.9983 -5.766948e-02 5.766948e-02 0.9983 -14.2823 15.6818)" class="st1" cx="264.6" cy="255.3" rx="22.3" ry="19.1"/>
<ellipse class="st1" cx="290.7" cy="124" rx="22.3" ry="19.1"/>
<ellipse class="st1" cx="130.1" cy="119.3" rx="22.3" ry="19.1"/>
<ellipse class="st1" cx="114.3" cy="134.4" rx="22.3" ry="19.1"/>
<ellipse class="st1" cx="110.5" cy="167.2" rx="39.7" ry="32.8"/>
<ellipse class="st1" cx="112.3" cy="151.1" rx="39.7" ry="32.8"/>
<ellipse class="st1" cx="107.8" cy="177.6" rx="22.3" ry="19.1"/>
<ellipse class="st1" cx="119.8" cy="200" rx="22.3" ry="19.1"/>
<ellipse class="st1" cx="201.1" cy="208.6" rx="53.8" ry="50.7"/>
<ellipse class="st1" cx="211.2" cy="244" rx="77" ry="86.1"/>
<ellipse class="st1" cx="211.2" cy="321.7" rx="77" ry="86.1"/>
<ellipse class="st1" cx="189.3" cy="350.2" rx="77" ry="80.6"/>
<ellipse class="st1" cx="245.9" cy="364.9" rx="77" ry="75.1"/>
<ellipse class="st1" cx="217.9" cy="134.4" rx="98.1" ry="51.7"/>
<ellipse class="st1" cx="145.4" cy="162.5" rx="37.6" ry="51.7"/>
<ellipse class="st1" cx="281.6" cy="159" rx="37.6" ry="51.7"/>
<ellipse class="st2" cx="211.2" cy="196.9" rx="41.5" ry="35.2"/>
<g>
	<path class="st1" d="M268.6,112.9c-14.1,0.9,41.9,27.5,60.7,24.1s40.8-60.1,25-111.4c-4.5-14.4-11.5-34.9-19.9-21
		S282.7,112,268.6,112.9z"/>
	<path class="st3" d="M288.1,114.4l11.3,7.8c33.3,25.2,35.2-2.3,42.6-25.2c5.3-16.6,8.1-41.7,6.7-56.8c-1-10.3-5.4-12.6-11.7-2.7
		S288.1,114.4,288.1,114.4z"/>
</g>
<g>
	<path class="st1" d="M122.2,115c11.3-0.2-32.3,29.9-47.4,28c-15.2-2-35.3-55.8-25-107c2.9-14.4,7.6-35,15-21.9
		C72.1,27,110.9,115.1,122.2,115z"/>
	<path class="st3" d="M106.7,117.9l-8.7,8.4c-25.5,27.1-28.2,0.3-35.2-21.6c-5-15.8-8.4-40.1-8-55c0.3-10.1,3.8-12.7,9.3-3.5
		S106.7,117.9,106.7,117.9z"/>
</g>
<ellipse transform="matrix(0.1016 -0.9948 0.9948 0.1016 -50.6249 422.2193)" class="st4" cx="208.5" cy="239.1" rx="80" ry="63.6"/>
<path class="st5" d="M209.2,232.2c-39.5,0-35.4,40.3-32.5,57.6c8.4,49.6,57,53.2,67.6-1.7C247.7,270.9,238.4,232.2,209.2,232.2z"/>
<ellipse transform="matrix(0.9983 -5.766948e-02 5.766948e-02 0.9983 -4.18 11.5912)" class="st1" cx="198.7" cy="78.2" rx="14.6" ry="19.1"/>
<ellipse transform="matrix(0.9983 -5.766948e-02 5.766948e-02 0.9983 -4.4307 10.6066)" class="st1" cx="181.6" cy="82.1" rx="14.6" ry="19.1"/>
<ellipse transform="matrix(0.9983 -5.766948e-02 5.766948e-02 0.9983 -5.8137 8.2385)" class="st1" cx="139.8" cy="104.8" rx="14.6" ry="19.1"/>
<ellipse transform="matrix(0.9983 -5.766948e-02 5.766948e-02 0.9983 -5.0762 9.4936)" class="st1" cx="161.9" cy="92.7" rx="19.8" ry="19.1"/>
<ellipse transform="matrix(0.9983 -5.766948e-02 5.766948e-02 0.9983 -5.7653 9.9153)" class="st1" cx="168.9" cy="104.8" rx="22.3" ry="19.1"/>
<ellipse class="st1" cx="223.5" cy="87.2" rx="22.3" ry="19.1"/>
<ellipse class="st1" cx="237.1" cy="94.7" rx="22.3" ry="19.1"/>
<circle class="st5" cx="198.7" cy="205.7" r="5.7"/>
<circle class="st5" cx="228.8" cy="203.9" r="5.7"/>
<path class="st6" d="M203,232.4c7.6,0,7.6,18.2,0,18.2c-7.6,0-13.7-4.1-13.7-9.1S195.5,232.4,203,232.4z"/>
<path class="st6" d="M216.2,232.5c-6.6-1-10.2,22.6-3.6,23.6c6.6,1,12.8-3.5,13.8-10C227.5,239.6,222.9,233.5,216.2,232.5z"/>
<path class="st4" d="M206,287.4c23.2-3.7,44.3,8.3,47.2,26.7c2.9,18.4-81,31.7-83.9,13.3S182.9,291,206,287.4z"/>
<g>
	<circle class="st7" cx="125.7" cy="187.7" r="34"/>
	<circle class="st6" cx="130.5" cy="185.1" r="24"/>
</g>
<g>
	<circle class="st7" cx="293.5" cy="185.1" r="34"/>
	<path class="st6" d="M317,189.7c-2.5,13-49.6,3.8-47.1-9.2c2.5-13,15.1-21.5,28.1-19C311.1,164.1,319.6,176.7,317,189.7z"/>
</g>
<path class="st8" d="M408.5,235.2C408.5,344.4,320,433,210.8,433S13,344.4,13,235.2"/>
<circle class="st9" cx="296.9" cy="177.6" r="6.7"/>
<g>
	<path class="st10" d="M146.9,195c-2.8,3-6.2,5.3-10,6.9c-3.8,1.5-8,2.2-12.1,2c-4.2-0.2-8.3-1.4-12-3.4l-1.4-0.8l-1.3-0.9
		c-0.4-0.3-0.9-0.6-1.3-0.9l-1.2-1c-0.8-0.6-1.5-1.5-2.3-2.2c-0.4-0.4-0.7-0.8-1-1.3c-0.3-0.4-0.7-0.8-1-1.3
		c-1.2-1.8-2.1-3.8-2.8-5.8c-0.6-2.1-1-4.2-1.1-6.4c-0.1-4.4,0.9-8.8,3.1-12.6c0.5-1,1.2-1.9,1.8-2.8c0.3-0.4,0.7-0.8,1.1-1.3
		c0.4-0.4,0.7-0.8,1.1-1.2c1.6-1.6,3.5-2.9,5.6-3.9c4.2-1.9,9-2.4,13.5-1.3c2.2,0.6,4.4,1.5,6.4,2.8c1,0.6,1.9,1.4,2.7,2.2
		c0.4,0.4,0.8,0.9,1.2,1.3c0.4,0.5,0.8,1,1.1,1.5c2.8,4,3.7,9.3,2.4,14.2c-0.7,2.4-1.8,4.7-3.4,6.6c-1.6,1.9-3.9,3.6-6.4,4.5
		c-2.5,0.9-5.2,1.1-7.8,0.6c-2.6-0.6-5-1.8-7-3.6c-2-1.8-3.4-4.4-3.9-7.1c-0.4-2.7,0-5.5,1.3-7.9c0.7-1.2,1.5-2.2,2.5-3.1
		c1.1-0.9,2.3-1.6,3.6-2c2.7-0.8,5.6-0.5,7.9,1c1.1,0.7,2.1,1.6,2.9,2.8c0.8,1.2,1.2,2.5,1.2,3.9c0.1,2.7-1.3,5.4-3.6,6.7
		c-1.2,0.7-2.6,0.9-3.8,0.7c-1.3-0.2-2.5-0.8-3.3-1.7c-0.9-0.9-1.4-2.2-1.3-3.4c0.1-1.2,0.7-2.3,1.5-3l0.5,0.5
		c-1.1,1.5-0.6,3.6,0.6,4.3c1.3,0.9,3,0.8,4-0.1c0.5-0.4,0.9-1,1.1-1.7c0.2-0.6,0.2-1.3,0.1-2c-0.3-1.3-1.1-2.2-2.4-2.8
		c-1.2-0.5-2.6-0.5-3.7,0c-0.6,0.2-1.1,0.6-1.5,1c-0.4,0.5-0.8,1.1-1.1,1.6c-0.5,1.2-0.6,2.6-0.3,3.8c0.3,1.2,1,2.3,2,3.1
		c2.1,1.8,5.1,2.3,7.7,1.4c1.3-0.5,2.4-1.2,3.4-2.3c1-1.1,1.8-2.4,2.2-3.9c0.9-2.9,0.6-6.2-1-8.9c-0.2-0.3-0.4-0.6-0.7-1l-0.8-0.9
		c-0.6-0.6-1.2-1.2-1.9-1.6c-1.3-1-2.8-1.8-4.4-2.3c-3.2-1-6.8-0.8-10,0.5c-1.6,0.6-3.1,1.6-4.3,2.7c-0.3,0.3-0.6,0.6-0.9,0.9
		c-0.3,0.3-0.6,0.6-0.9,1c-0.5,0.7-1.1,1.4-1.6,2.2c-1.9,3-2.9,6.6-3,10.3c0,1.8,0.2,3.6,0.7,5.4c0.5,1.7,1.2,3.5,2.2,5
		c0.2,0.4,0.5,0.8,0.7,1.2c0.3,0.4,0.5,0.8,0.8,1.1c0.6,0.7,1.2,1.4,1.9,2.1l1,1c0.3,0.3,0.7,0.6,1.1,0.9l1.1,0.9l1.2,0.8
		c3.2,2,6.9,3.3,10.7,3.7c7.6,0.9,15.7-1.7,21.5-7.2L146.9,195z"/>
</g>
</svg>
