<?xml version="1.0" encoding="utf-8"?>
<!-- Generator: Adobe Illustrator 24.0.2, SVG Export Plug-In . SVG Version: 6.00 Build 0)  -->
<svg version="1.1" id="Layer_1" xmlns="http://www.w3.org/2000/svg" xmlns:xlink="http://www.w3.org/1999/xlink" x="0px" y="0px"
	 viewBox="0 0 384 443.9" style="enable-background:new 0 0 384 443.9;" xml:space="preserve">
<style type="text/css">
	.st0{fill:none;}
	.st1{fill:#E53030;}
</style>
<path class="st0" d="M48,411.9h288c8.8,0,16-7.2,16-16v-368H32v368C32,404.7,39.2,411.9,48,411.9z M256,83.9c0-4.4,3.6-8,8-8h16
	c4.4,0,8,3.6,8,8v272c0,4.4-3.6,8-8,8h-16c-4.4,0-8-3.6-8-8V83.9z M176,83.9c0-4.4,3.6-8,8-8h16c4.4,0,8,3.6,8,8v272
	c0,4.4-3.6,8-8,8h-16c-4.4,0-8-3.6-8-8V83.9z M96,83.9c0-4.4,3.6-8,8-8h16c4.4,0,8,3.6,8,8v272c0,4.4-3.6,8-8,8h-16
	c-4.4,0-8-3.6-8-8V83.9z"/>
<g>
	<path class="st1" d="M104,363.9h16c4.4,0,8-3.6,8-8v-272c0-4.4-3.6-8-8-8h-16c-4.4,0-8,3.6-8,8v272C96,360.3,99.6,363.9,104,363.9z
		"/>
	<path class="st1" d="M264,363.9h16c4.4,0,8-3.6,8-8v-272c0-4.4-3.6-8-8-8h-16c-4.4,0-8,3.6-8,8v272
		C256,360.3,259.6,363.9,264,363.9z"/>
	<path class="st1" d="M184,363.9h16c4.4,0,8-3.6,8-8v-272c0-4.4-3.6-8-8-8h-16c-4.4,0-8,3.6-8,8v272
		C176,360.3,179.6,363.9,184,363.9z"/>
	<path class="st1" d="M377.1,0H288H96H6.9C3.1,0,0,3.6,0,8v16c0,1.4,0,2.7,0,3.9V32v363.9c0,26.5,21.5,48,48,48h288
		c26.5,0,48-21.5,48-48V32v-4.1c0-1.1,0-2.5,0-3.9V8C384,3.6,380.9,0,377.1,0z M336,411.9H48c-8.8,0-16-7.2-16-16V32h22.9h274.3H352
		v363.9C352,404.7,344.8,411.9,336,411.9z"/>
</g>
</svg>
