<?xml version="1.0" encoding="utf-8"?>
<!-- Generator: Adobe Illustrator 24.0.2, SVG Export Plug-In . SVG Version: 6.00 Build 0)  -->
<svg version="1.1" id="Layer_1" xmlns="http://www.w3.org/2000/svg" xmlns:xlink="http://www.w3.org/1999/xlink" x="0px" y="0px"
	 viewBox="0 0 448 96" style="enable-background:new 0 0 448 96;" xml:space="preserve">
<style type="text/css">
	.st0{fill:#E53230;}
</style>
<path class="st0" d="M448,88V72c0-4.4-3.6-8-8-8H336l-33.6-44.8C293.3,7.1,279.1,0,264,0h-80c-15.1,0-29.3,7.1-38.4,19.2L112,64H8
	c-4.4,0-8,3.6-8,8v16c0,4.4,3.6,8,8,8h24h32h320h32h24C444.4,96,448,92.4,448,88z M152,64l19.2-25.6c3-4,7.8-6.4,12.8-6.4h80
	c5,0,9.8,2.4,12.8,6.4L296,64H152z"/>
</svg>
