<svg width="461" height="499" viewBox="0 0 461 499" fill="none" xmlns="http://www.w3.org/2000/svg">
<path fill-rule="evenodd" clip-rule="evenodd" d="M200.763 13.2445C256.542 10.2127 309.14 35.7716 354.829 67.8853C401.103 100.411 451.949 139.619 460.136 195.552C468.102 249.983 419.007 293.295 395.07 342.834C375.244 383.867 367.772 431.985 332.148 460.433C295.672 489.563 247.201 502.909 200.763 498.006C156.84 493.368 122.945 461.803 88.1159 434.665C54.5884 408.541 15.0044 384.707 3.03761 343.943C-8.80981 303.587 17.2192 264.149 25.9821 223.014C36.1447 175.308 27.1797 121.482 58.4129 83.9966C93.1708 42.2807 146.517 16.193 200.763 13.2445Z" fill="#D05AF0" fill-opacity="0.15"/>
<path d="M183.802 119.831C182.123 119.279 172.238 111.451 171.49 107.911C170.741 104.371 176.715 71.4023 176.715 71.4023C176.715 71.4023 176.163 71.4024 175.262 71.2933V70.7627L176.526 27.4509C176.526 27.4509 181.563 -1.6223 172.049 0.0712133C162.535 1.76473 168.502 27.4509 168.502 27.4509C168.502 27.4509 167.419 40.4975 166.656 44.4079C165.929 48.1728 162.6 63.538 164.868 68.3133C164.95 68.4838 165.042 68.6489 165.144 68.8076C165.144 68.8076 165.522 85.1976 161.416 87.4362C157.498 89.5731 155.87 100.287 155.732 101.246L155.521 101.151C154.353 100.42 153.327 99.4846 152.49 98.3896C152.403 98.2733 152.338 98.157 152.258 98.0407C154.93 95.0327 156.37 91.1279 156.29 87.1052C156.211 83.0825 154.618 79.2376 151.829 76.3375C150.531 74.9874 149.009 73.8733 147.33 73.045C147.28 71.6563 146.951 70.2918 146.363 69.0329C144.473 64.9917 134.007 59.7076 126.571 59.5841C123.141 59.4751 120.328 60.4563 119.303 63.1383C118.78 64.4975 118.94 66.0093 118.722 67.4484C118.286 70.3557 116.418 72.6379 114.019 74.4405C113.053 73.3596 112.005 72.3537 110.886 71.4314C108.459 69.5707 103.618 63.4363 103.618 63.4363C103.618 63.4363 88.4856 47.744 87.3662 43.4412C86.2469 39.1383 71.1361 13.4449 67.7782 17.9149C64.4202 22.3849 79.342 41.9875 79.342 41.9875C79.342 41.9875 82.1403 49.0669 84.379 51.4872C86.6176 53.9075 103.255 78.111 103.255 78.111L104.054 79.7609C100.522 81.6216 97.2947 83.991 96.1536 87.6833C94.4819 93.12 98.1379 98.5858 100.667 103.674C105.595 113.595 106.3 126.256 99.9404 135.334C94.2857 143.402 84.4226 147.182 75.1482 150.532C79.6175 154.041 85.1676 155.886 90.8477 155.751C88.7109 161.936 81.1373 163.993 74.683 165.134C78.0701 168.391 82.918 169.575 87.5697 170.295C89.8476 170.686 92.1563 170.869 94.4674 170.84H95.0343L95.6012 170.804C96.3895 170.752 97.1737 170.651 97.9489 170.498C101.307 169.815 104.57 167.984 106.286 165.018C107.739 162.481 108.248 159.029 110.886 157.75C111.574 157.442 112.314 157.269 113.067 157.241H112.987C113.481 157.241 113.99 157.241 114.484 157.241L125.481 157.357C125.939 157.357 126.412 157.357 126.884 157.357C129.988 157.292 133.302 156.754 134.879 154.188C135.527 152.942 135.869 151.559 135.875 150.154C136.107 146.666 135.875 143.09 135.969 139.572C136.907 145.961 137.888 155.925 135.555 159.596C133.644 162.375 131.332 164.857 128.694 166.959C128.034 167.513 127.43 168.132 126.891 168.805C126.535 169.059 126.324 169.197 126.324 169.197L126.099 169.881C125.268 171.136 124.667 172.529 124.326 173.994C124.198 174.368 124.151 174.764 124.187 175.157C124.442 175.681 122.37 177.81 122.974 178.704C117.799 184.766 116.817 193.968 116.817 193.968L107.369 208.308C102.513 221.071 95.2451 222.372 95.2451 222.372C95.2451 222.372 78.1718 210.917 77.7067 210.358C77.2415 209.798 70.7146 207.007 70.7146 207.007C69.9466 205.654 68.7715 204.579 67.3566 203.933C65.118 203.002 64.929 199.572 64.929 199.572C64.6528 191.475 59.892 190.85 59.892 190.85C56.0544 190.523 53.1253 191.206 50.8721 192.456L50.1889 192.514C46.8891 192.776 42.9206 193.074 38.5596 193.364C26.4288 194.164 23.5433 202.028 23.5433 202.028C23.5433 202.028 22.0533 203.7 24.0084 205.517C25.9636 207.334 38.4796 205.517 39.0102 205.473C38.0565 205.584 37.0906 205.518 36.161 205.277C38.1308 205.205 40.8418 205.132 43.1531 205.132H43.7128C43.5673 206.357 43.4969 207.59 43.502 208.824C43.502 211.157 49.9345 212.647 49.9345 212.647L69.5225 230.091C69.5225 230.091 81.835 235.586 89.6703 243.501C97.5055 251.416 104.403 244.621 104.403 244.621C112.696 242.571 136.558 213.73 136.58 213.701C136.58 214.544 137.081 242.593 138.034 248.226C138.071 248.511 138.142 248.792 138.244 249.061C139.364 251.482 137.866 258.096 137.22 260.894C136.807 263.228 136.648 265.599 136.747 267.966C136.747 267.966 127.8 302.127 128.541 305.129C129.283 308.131 123.693 322.086 123.693 322.086V333.715L124.667 333.672C124.541 333.857 124.424 334.049 124.318 334.246L124.253 334.37C124.253 334.37 130.22 335.671 134.232 335.3C138.244 334.929 145.135 338.396 145.135 338.396C145.135 338.396 147.468 339.494 154.649 339.959C161.83 340.424 161.83 336.79 161.83 336.79C161.009 331.84 149.663 330.183 149.314 330.139C148.398 329.565 147.54 328.933 146.835 328.395L146.69 328.279C146.739 328.17 146.78 328.058 146.814 327.944C148.027 323.009 141.312 320.865 141.312 320.865V319.637C145.673 317.405 146.537 302.033 146.537 302.033C146.537 302.033 153.079 283.034 153.995 279.872C154.911 276.71 153.995 271.949 153.995 271.949L154.649 267.857C154.649 267.857 156.052 265.059 156.052 264.499C156.235 263.081 156.78 261.734 157.636 260.589C158.661 259.375 156.517 256.49 156.517 256.49L158.385 251.649V246.343L162.746 227.06C162.746 227.06 167.318 204.609 165.733 197.26C164.149 189.912 167.601 186.176 167.601 186.176C167.29 186.34 166.969 186.485 166.642 186.612C167.078 185.603 167.454 184.569 167.768 183.516L177.58 184.737V184.875H181.12C181.12 184.875 180.001 171.065 180.001 165.505C180.001 159.945 183.737 139.979 183.737 139.979C183.737 139.979 185.481 120.391 183.802 119.831ZM140.243 103.717C140.243 104.262 140.192 104.829 140.156 105.403L139.96 105.709L139.596 105.396L139.153 106.087L139.022 106.159C138.063 105.665 137.568 102.838 136.878 103.441L136.783 103.521C136.631 103.354 136.478 103.296 136.318 103.441L136.173 103.572C136.173 103.354 136.173 103.136 136.173 102.918C137.502 103.266 138.87 103.442 140.243 103.441C140.25 103.528 140.243 103.623 140.243 103.717ZM172.878 168.027H173.089L172.74 168.936C172.783 168.638 172.827 168.332 172.878 168.027ZM137.052 332.85L135.715 332.509L136.442 332.393L137.118 332.836L137.198 332.887L137.052 332.85ZM150.717 330.895C150.273 330.655 149.823 330.394 149.387 330.118C149.843 330.354 150.287 330.614 150.717 330.895Z" fill="url(#paint0_linear)"/>
<path d="M177.704 154.29L168.902 177.229H171.039L162.76 183.828L177.704 185.689V154.29Z" fill="#F86D70"/>
<path opacity="0.1" d="M177.704 154.29L168.902 177.229L166.685 176.633L162.76 183.828L177.704 185.689V154.29Z" fill="black"/>
<path d="M163.901 168.965H177.704L182.77 127.281H163.901V168.965Z" fill="#F86D70"/>
<path opacity="0.1" d="M163.901 168.965H177.704L182.77 127.281H163.901V168.965Z" fill="black"/>
<path d="M136.943 137.151L139.923 136.65L146.77 135.487C146.77 135.487 167.332 130.857 171.591 130.486C174.163 130.15 176.672 129.435 179.034 128.364C180.146 127.884 180.851 127.521 180.851 127.521L173.445 113.995L161.954 105.476C161.954 105.476 154.685 103.928 151.611 99.6615C150.925 98.7527 150.478 97.6861 150.312 96.5596C150.145 95.4331 150.265 94.2829 150.659 93.2146C152.534 87.3999 139.458 98.7675 139.458 98.7675C139.458 98.7675 139.582 101.493 139.458 104.967C139.458 105.651 139.393 106.37 139.342 107.097C139.342 107.577 139.277 108.056 139.226 108.551C138.906 111.996 138.252 115.55 136.958 117.672C133.782 122.891 136.943 137.151 136.943 137.151Z" fill="#FBBEBE"/>
<path opacity="0.1" d="M139.444 105.287H139.735C140.258 105.287 140.679 104.182 141.188 104.124C145.28 103.732 149.016 102.874 151.611 99.9814C150.927 99.0703 150.481 98.0025 150.315 96.8752C150.148 95.748 150.267 94.597 150.659 93.5271C152.534 87.7125 139.458 99.0874 139.458 99.0874C139.458 99.0874 139.596 101.806 139.444 105.287Z" fill="black"/>
<path d="M123.526 88.8027C123.525 90.8952 123.937 92.9674 124.737 94.9008C125.537 96.8342 126.711 98.5909 128.191 100.071C129.67 101.55 131.427 102.724 133.36 103.524C135.294 104.324 137.366 104.736 139.458 104.735C139.982 104.735 140.498 104.735 141.014 104.655C144.084 104.354 147.001 103.168 149.41 101.241C151.819 99.3138 153.617 96.729 154.585 93.8C155.554 90.871 155.651 87.7238 154.865 84.7406C154.079 81.7575 152.444 79.0666 150.159 76.9947C147.873 74.9228 145.035 73.5591 141.989 73.069C138.944 72.579 135.821 72.9837 133.001 74.2341C130.181 75.4844 127.784 77.5267 126.102 80.1128C124.421 82.6989 123.526 85.7177 123.526 88.8027Z" fill="#FBBEBE"/>
<path d="M118.635 64.621C118.111 65.9729 118.271 67.4775 118.06 68.9093C117.283 74.0771 112.028 77.1734 107.274 79.3466C102.521 81.5198 97.1568 84.071 95.645 89.0643C93.9878 94.4719 97.6074 99.8796 100.122 104.946C105.021 114.823 105.719 127.412 99.3954 136.439C93.777 144.434 83.9866 148.221 74.7704 151.557C79.2085 155.041 84.7202 156.873 90.3609 156.739C88.2458 162.896 80.7231 164.938 74.3125 166.079C77.6777 169.314 82.4966 170.498 87.112 171.211C90.4772 171.727 93.9297 172.068 97.2876 171.392C100.646 170.716 103.829 168.892 105.559 165.941C107.013 163.419 107.507 159.981 110.131 158.709C111.316 158.245 112.592 158.061 113.859 158.171L124.762 158.28C128.156 158.28 132.175 158.019 133.927 155.119C134.573 153.88 134.912 152.504 134.916 151.107C135.388 143.955 134.014 136.403 136.958 129.869C137.845 127.906 132.154 124.781 132.75 122.702C134.799 115.528 135.315 109.873 135.294 102.409C135.294 96.6379 139.051 91.6591 142.155 86.7821C145.258 81.905 147.853 75.7488 145.404 70.5156C142.642 64.6719 121.898 56.1971 118.635 64.621Z" fill="#3F3D56"/>
<path d="M133.149 330.75L135.926 332.589L136.355 332.872L136.435 332.93L139.727 335.111L147.417 336.412L154.177 335.947C154.177 335.947 156.125 331.869 153.065 331.964C152.086 331.913 151.131 331.64 150.274 331.164C150.135 331.099 149.99 331.026 149.852 330.946C149.409 330.714 148.965 330.452 148.529 330.176C147.621 329.602 146.763 328.984 146.072 328.446C145.055 327.668 144.379 327.065 144.379 327.065L133.149 330.75Z" fill="#FBBEBE"/>
<path opacity="0.1" d="M135.962 332.589L136.391 332.872L136.471 332.93L139.763 335.111L147.453 336.412L154.213 335.947C154.213 335.947 156.161 331.869 153.101 331.964C152.122 331.913 151.167 331.639 150.31 331.164C150.847 331.586 151.298 332.036 151.342 332.429C151.465 333.461 146.341 335.336 146.341 335.336L139.08 333.446C139.08 333.446 137.852 333.098 136.173 332.661L136.013 332.618L135.962 332.589Z" fill="black"/>
<path d="M123.606 334.362C123.606 334.362 129.53 335.663 133.513 335.293C137.496 334.922 144.35 338.367 144.35 338.367C144.35 338.367 146.668 339.457 153.798 339.923C160.929 340.388 160.929 336.775 160.929 336.775C160.115 331.847 148.849 330.234 148.5 330.154C148.638 330.227 149.227 330.532 149.823 330.924C150.622 331.448 151.487 332.131 151.553 332.683C151.676 333.723 146.552 335.591 146.552 335.591L139.327 333.686C139.327 333.686 138.099 333.337 136.42 332.901L136.26 332.858C133.773 332.185 131.246 331.668 128.694 331.31C125.583 330.975 123.991 333.628 123.664 334.217C123.64 334.264 123.621 334.312 123.606 334.362Z" fill="#3F3D56"/>
<path d="M30.2373 203.664L33.3845 206.069L35.6667 205.982H36.1028C38.058 205.917 40.7545 205.844 43.0441 205.837C44.5241 205.774 46.0066 205.857 47.4705 206.084C49.0404 206.644 51.8314 197.1 51.8314 197.1L48.677 196.373L47.6304 196.134L46.9035 195.959L44.3378 195.356L36.5607 196.235L31.0732 199.71L30.2373 203.664Z" fill="#FBBEBE"/>
<path opacity="0.1" d="M30.2373 203.664L33.3845 206.069L35.6667 205.982C35.0397 205.74 34.5227 205.278 34.2131 204.681C32.1779 199.034 42.2736 196.621 42.2736 196.621L46.9762 196.417L47.892 196.381H48.6188L47.5722 196.141L46.8454 195.967L44.2797 195.363L36.5026 196.243L31.0732 199.71L30.2373 203.664Z" fill="black"/>
<path d="M24.0302 206.208C25.9345 207.974 38.4069 206.208 38.9302 206.164C37.9837 206.274 37.0249 206.208 36.1028 205.968C35.646 205.886 35.2132 205.703 34.8359 205.433C34.4587 205.163 34.1466 204.811 33.9223 204.405C31.8872 198.758 41.9829 196.344 41.9829 196.344L46.6855 196.141L47.594 196.105L59.027 195.603L59.5794 192.456C59.5794 192.456 55.8653 192.812 50.0361 193.277C46.7581 193.539 42.7679 193.837 38.4578 194.12C26.4142 194.92 23.5505 202.741 23.5505 202.741C23.5505 202.741 22.0895 204.405 24.0302 206.208Z" fill="#3F3D56"/>
<path d="M163.909 69.7888C163.986 69.9591 164.078 70.122 164.185 70.2758L166.961 74.3533L174.186 75.0802L174.266 72.2165L175.48 29.13C175.48 29.13 180.48 0.231188 171.031 1.9029C161.583 3.57461 167.514 29.13 167.514 29.13C167.514 29.13 166.438 42.1039 165.682 45.9924C164.948 49.7574 161.655 65.0354 163.909 69.7888Z" fill="#FBBEBE"/>
<path d="M147.693 176.8L149.75 180.325L154.351 188.197C154.351 188.197 162.695 191.249 164.832 188.924C166.002 187.652 167.267 183.218 168.154 179.475C168.88 176.451 169.367 173.9 169.367 173.9L147.693 176.8Z" fill="#FBBEBE"/>
<path opacity="0.1" d="M147.693 176.8L149.75 180.325C149.878 180.21 149.994 180.083 150.099 179.947C152.425 176.982 162.666 179.322 168.154 179.504C168.88 176.48 169.367 173.929 169.367 173.929L147.693 176.8Z" fill="black"/>
<path opacity="0.1" d="M43.0444 205.822C44.5244 205.76 46.007 205.842 47.4708 206.069C49.0408 206.629 51.8318 197.086 51.8318 197.086L47.6162 196.076L59.0492 195.574L59.6016 192.427C59.6016 192.427 55.8875 192.783 50.0583 193.248C48.8507 193.937 47.7752 194.835 46.8821 195.901L46.7077 196.112C44.2873 199.128 43.386 202.98 43.0444 205.822Z" fill="black"/>
<path opacity="0.1" d="M133.149 330.75L136.355 332.872C141.137 332.015 145.506 330.655 146.022 328.511C146.025 328.475 146.025 328.439 146.022 328.402C145.004 327.625 144.328 327.021 144.328 327.021L133.149 330.75Z" fill="black"/>
<path opacity="0.1" d="M123.671 334.239C127.895 334.036 132.104 333.585 136.275 332.887C133.783 332.203 131.251 331.677 128.694 331.31C125.59 330.975 123.998 333.628 123.671 334.239Z" fill="black"/>
<path d="M43.3931 209.5C43.3931 211.819 49.7819 213.294 49.7819 213.294L69.2392 230.615C69.2392 230.615 81.4499 236.051 89.2415 243.959C97.0331 251.867 103.88 245.071 103.88 245.071C112.122 243.029 135.86 214.319 135.86 214.319C135.86 214.319 136.413 247.106 137.525 249.512C138.637 251.918 137.154 258.503 136.507 261.28C136.099 263.604 135.943 265.965 136.042 268.322C136.042 268.322 127.153 302.316 127.894 305.282C128.636 308.247 123.075 322.137 123.075 322.137V333.715C123.075 333.715 144.844 332.88 146.043 327.973C147.243 323.067 140.585 320.93 140.585 320.93V319.731C144.946 317.507 145.767 302.222 145.767 302.222C145.767 302.222 152.258 283.324 153.181 280.177C154.104 277.03 153.181 272.298 153.181 272.298L153.828 268.228C153.828 268.228 155.216 265.451 155.216 264.892C155.399 263.482 155.942 262.142 156.793 261.003C157.811 259.797 155.681 256.926 155.681 256.926L157.534 252.107V246.83L161.895 227.656C161.895 227.656 166.438 205.328 164.861 198.016C163.284 190.704 166.714 186.99 166.714 186.99C159.279 190.893 155.528 182.222 154.3 178.494C153.988 177.527 153.835 176.894 153.835 176.894C153.835 176.894 143.623 173.13 134.116 173.987C132.186 174.147 130.283 174.55 128.454 175.186C117.893 178.988 116.229 194.731 116.229 194.731L106.874 208.999C102.056 221.689 94.8309 222.99 94.8309 222.99C94.8309 222.99 77.8812 211.593 77.3869 211.041C76.8927 210.489 70.4384 207.705 70.4384 207.705C69.6769 206.359 68.5092 205.288 67.1023 204.645C64.8782 203.722 64.6965 200.284 64.6965 200.284C64.4203 192.223 59.6959 191.562 59.6959 191.562C43.2986 190.261 43.3931 207.181 43.3931 209.5Z" fill="#3F3D56"/>
<path d="M137.692 164.204H147.693V133.176H137.692V164.204Z" fill="#F86D70"/>
<path opacity="0.1" d="M137.692 164.204H147.693V133.176H137.692V164.204Z" fill="black"/>
<path opacity="0.1" d="M163.901 69.7161C163.899 69.7403 163.899 69.7646 163.901 69.7888C163.979 69.959 164.071 70.122 164.177 70.2758L166.954 74.3533L174.179 75.0801L174.259 72.2164C172.005 72.0347 166.874 71.4169 163.901 69.7161Z" fill="black"/>
<path d="M164.185 70.2758C164.185 70.2758 164.555 86.5786 160.478 88.8027C156.4 91.0268 154.816 102.612 154.816 102.612C154.816 102.612 167.172 110.738 169.927 114.307C172.681 117.876 179.005 126.402 177.704 128.444C176.403 130.486 180.858 139.739 180.858 139.739C180.858 139.739 172.703 156.412 174.557 162.714C176.41 169.016 176.592 185.689 176.592 185.689H180.117C180.117 185.689 179.005 171.974 179.005 166.421C179.005 160.868 182.704 141.04 182.704 141.04C182.704 141.04 184.376 121.583 182.704 121.03C181.033 120.478 171.22 112.694 170.479 109.176C169.738 105.658 175.669 72.8343 175.669 72.8343C175.669 72.8343 168.073 72.5145 164.185 70.2758Z" fill="#F86D70"/>
<path opacity="0.1" d="M137.503 130.297C137.841 132.565 138.667 134.732 139.923 136.65L146.77 135.487C146.77 135.487 167.332 130.857 171.591 130.486C174.163 130.15 176.672 129.435 179.034 128.364C177.406 122.593 174.226 117.378 169.84 113.29L167.223 110.869C165.302 109.091 163.227 107.485 161.023 106.072C158.819 104.654 156.491 103.438 154.067 102.438C154.373 102.692 175.945 121.118 171.221 124.73C166.496 128.342 153.777 119.54 153.777 119.54L139.313 107.119L138.789 106.661L137.954 107.962C138.378 108.142 138.793 108.343 139.196 108.565C144.13 111.267 147.789 115.815 149.372 121.212C152.338 131.213 137.503 130.297 137.503 130.297Z" fill="black"/>
<path d="M133.055 176.618C133.055 176.618 146.763 184.214 150.092 179.947C150.818 179.01 152.352 178.603 154.264 178.494C153.951 177.527 153.798 176.894 153.798 176.894C153.798 176.894 143.586 173.13 134.08 173.987C133.454 175.601 133.055 176.618 133.055 176.618Z" fill="#444053"/>
<path d="M139.364 106.675L154.351 119.548C154.351 119.548 167.019 128.371 171.795 124.737C176.57 121.103 154.634 102.445 154.634 102.445C159.489 104.444 163.946 107.294 167.797 110.862L170.407 113.282C177.268 119.635 178.816 119.635 179.049 128.989C179.107 131.286 178.322 134.6 177.718 135.196C175.494 137.377 173.939 153.207 174.28 155.061C174.622 156.914 170.123 172.912 171.577 177.36C173.03 181.808 153.406 175.136 150.084 179.395C146.763 183.654 133.055 176.059 133.055 176.059C133.055 176.059 140.65 156.609 142.503 155.308C144.357 154.007 146.581 144.013 142.503 139.376C138.426 134.738 138.063 130.297 138.063 130.297C138.063 130.297 152.89 131.221 149.917 121.219C149.081 118.323 147.63 115.64 145.663 113.355C143.696 111.07 141.26 109.235 138.52 107.977L139.364 106.675Z" fill="#E8E8F0"/>
<path opacity="0.1" d="M159.366 139.47C159.366 139.47 153.617 150.307 146.181 153.127C145.941 153.214 145.709 153.294 145.454 153.367C137.692 155.729 159.947 142.806 159.366 139.47Z" fill="black"/>
<path d="M78.964 43.6011C78.964 43.6011 81.7405 50.6369 83.9646 53.0499C86.1887 55.463 102.673 79.5501 102.673 79.5501L104.069 82.4575L105.268 84.9432L115.829 83.8312L116.556 79.572C116.556 79.572 116.41 79.383 116.149 79.0777C115.087 77.7985 112.195 74.3897 110.254 72.8997C107.848 71.0462 103.029 64.9045 103.029 64.9045C103.029 64.9045 88.0275 49.3431 86.9155 45.0839C85.8034 40.8246 70.7944 15.2838 67.4655 19.6957C64.1366 24.1075 78.964 43.6011 78.964 43.6011Z" fill="#FBBEBE"/>
<g opacity="0.1">
<path opacity="0.1" d="M109.607 158.164C108.339 158.054 107.063 158.238 105.878 158.702C103.262 159.981 102.768 163.412 101.314 165.97C99.6132 168.914 96.3715 170.738 93.0354 171.414C92.3723 171.545 91.7027 171.64 91.0293 171.698C93.1544 171.902 95.2978 171.807 97.3963 171.414C100.732 170.738 103.974 168.914 105.675 165.97C107.129 163.441 107.623 160.01 110.239 158.702C110.926 158.393 111.667 158.22 112.42 158.193L109.607 158.164Z" fill="black"/>
<path opacity="0.1" d="M135.424 102.409C135.424 96.6306 139.182 91.6518 142.278 86.7748C145.375 81.8978 147.977 75.7415 145.527 70.5084C143.434 66.0383 130.816 60.042 123.533 61.234C130.664 62.1498 139.451 66.8451 141.166 70.5084C143.616 75.7415 141.014 81.8978 137.917 86.7748C134.821 91.6518 131.049 96.6306 131.063 102.409C131.063 109.866 130.562 115.492 128.512 122.695C127.923 124.766 133.6 127.899 132.728 129.861C129.777 136.403 131.158 143.955 130.685 151.107C130.676 152.502 130.334 153.874 129.69 155.111C128.236 157.51 125.256 158.128 122.356 158.251H124.893C128.28 158.251 132.299 157.997 134.051 155.09C134.695 153.852 135.037 152.48 135.046 151.085C135.519 143.933 134.138 136.374 137.089 129.84C137.976 127.877 132.284 124.752 132.873 122.673C134.923 115.521 135.439 109.866 135.424 102.409Z" fill="black"/>
</g>
<path opacity="0.1" d="M104.069 82.4284L105.268 84.9141L115.829 83.8021L116.556 79.5428C116.556 79.5428 116.41 79.3539 116.149 79.0486C115.022 79.6082 106.584 83.6567 104.069 82.4284Z" fill="black"/>
<path opacity="0.1" d="M143.064 110.31C143.064 110.31 140.469 106.232 138.986 107.344C137.503 108.456 136.929 104.008 136.079 104.749C135.228 105.491 132.75 107.555 131.718 104.662C130.911 102.365 122.131 87.8433 118.569 81.9923L117.079 79.5502C117.079 79.5502 107.078 84.558 104.672 82.8863V86.4115L106.707 86.5932L117.61 106.944C117.61 106.944 121.041 112.396 120.808 114.3C120.575 116.204 125.205 124.541 125.947 125.101C126.688 125.66 134.669 134.92 134.669 134.92C134.669 134.92 138.746 154.922 135.221 160.483C131.696 166.043 125.591 170.113 125.591 170.113C125.591 170.113 123.752 175.492 124.021 176.044C124.29 176.597 121.884 179.01 122.996 179.751C124.108 180.492 125.591 185.682 125.591 185.682C125.591 185.682 130.78 177.345 133.586 176.044C136.391 174.743 139.982 157.706 139.982 157.706C139.982 157.706 141.007 147.654 141.087 141.171C141.166 134.688 140.839 110.31 143.064 110.31Z" fill="black"/>
<path d="M142.503 110.31C142.503 110.31 139.916 106.232 138.433 107.344C136.95 108.456 136.369 104.008 135.526 104.749C134.683 105.491 132.204 107.555 131.165 104.662C130.351 102.365 121.571 87.8433 118.017 81.9923C117.093 80.4878 116.527 79.5502 116.527 79.5502C116.527 79.5502 106.525 84.558 104.112 82.8863V86.4115L106.155 86.5932L117.057 106.944C117.057 106.944 120.495 112.396 120.255 114.3C120.015 116.204 124.616 124.541 125.394 125.101C126.172 125.66 134.116 134.92 134.116 134.92C134.116 134.92 138.193 154.922 134.676 160.483C132.82 163.276 130.559 165.777 127.967 167.904C125.792 169.698 124.261 172.153 123.606 174.896C123.48 175.27 123.435 175.666 123.475 176.059C123.744 176.618 121.338 179.024 122.45 179.766C123.562 180.507 125.038 185.696 125.038 185.696C125.038 185.696 130.227 177.36 133.033 176.059C135.838 174.758 139.436 157.721 139.436 157.721C139.436 157.721 140.454 147.669 140.541 141.185C140.628 134.702 140.323 110.31 142.503 110.31Z" fill="#F86D70"/>
<path opacity="0.1" d="M117.123 194.622C117.123 194.622 124.907 196.076 128.025 198.329C131.143 200.582 116.17 194.811 116.17 194.811L117.123 194.622Z" fill="black"/>
<path opacity="0.1" d="M135.839 214.319C135.839 214.319 143.958 221.079 142.504 227.191C141.05 233.304 137.3 248.684 137.3 248.684L135.839 214.319Z" fill="black"/>
<path opacity="0.1" d="M64.8346 201.302C64.8346 201.302 53.3942 202.552 54.1356 204.034C54.877 205.517 64.8346 202.668 64.8346 202.668V201.302Z" fill="black"/>
<path opacity="0.1" d="M152.679 257.573C152.679 257.573 153.406 258.503 149.161 257.573C144.917 256.642 148.049 253.8 148.049 253.8L152.679 257.573Z" fill="black"/>
<path opacity="0.1" d="M151.225 270.358C151.225 270.358 145.411 271.281 142.293 270.358C139.175 269.434 151.225 270.358 151.225 270.358Z" fill="black"/>
<path opacity="0.1" d="M139.262 320.364C139.262 320.364 138.244 319.251 133.149 321.287C128.054 323.322 126.019 323.416 124.536 322.74C123.054 322.064 139.262 320.364 139.262 320.364Z" fill="black"/>
<path opacity="0.1" d="M144.917 199.71L137.692 209.762C137.692 209.762 141.58 200.974 144.917 199.71Z" fill="black"/>
<path opacity="0.1" d="M130.874 107.33C130.874 107.33 130.562 110.666 125.903 111.959C121.244 113.253 120.357 114.314 120.357 114.314" fill="black"/>
<path opacity="0.1" d="M118.765 83.1406C118.765 83.1406 112.616 87.5016 106.198 86.5785L118.765 83.1406Z" fill="black"/>
<path opacity="0.1" d="M123.446 176.524C123.446 176.524 125.241 177.65 129.551 172.715L123.446 176.524Z" fill="black"/>
<path opacity="0.1" d="M168.211 124.265C168.386 123.363 167.761 122.528 167.172 121.823L165.966 120.369C165.73 120.071 165.464 119.799 165.173 119.555C164.447 118.995 163.516 118.828 162.76 118.327" fill="black"/>
<path d="M433.977 191.977C432.941 191.173 431.723 190.636 430.431 190.414C429.072 190.102 427.684 189.905 426.303 189.687L408.411 187.107C406.605 186.772 404.763 186.674 402.932 186.817C402.015 186.891 401.123 187.147 400.306 187.568C399.489 187.99 398.763 188.569 398.172 189.273C397.637 189.933 397.345 190.757 397.343 191.606C397.444 192.456 397.721 193.275 398.157 194.011C398.329 194.359 398.477 194.719 398.6 195.087C398.855 195.886 398.906 196.744 399.24 197.521C399.321 197.691 399.423 197.85 399.545 197.994C399.548 198.037 399.548 198.081 399.545 198.125C399.349 199.12 399.981 200.167 399.698 201.14C399.451 201.962 398.644 202.463 398.135 203.153C397.795 203.644 397.607 204.224 397.594 204.821C397.581 205.418 397.744 206.006 398.063 206.511C398.608 207.354 399.596 207.921 399.879 208.887C400.25 210.166 399.247 211.387 398.353 212.368C396.711 214.176 395.191 216.091 393.804 218.102C393.418 218.599 393.168 219.187 393.077 219.81C392.997 221.074 394.211 222.193 394 223.443C393.833 224.432 392.867 225.042 392.031 225.624C388.942 227.666 386.464 230.936 386.217 234.628C385.427 228.742 382.988 223.199 379.182 218.64C378.143 217.383 377.002 216.133 376.573 214.541C376.414 213.909 376.385 213.24 376.167 212.63C375.44 210.697 373.129 209.876 372.119 208.095C371.392 206.852 371.392 205.239 370.491 204.149C369.59 203.059 368.173 202.797 367.395 201.736C367.005 201.018 366.675 200.27 366.407 199.498C366.081 198.871 365.622 198.323 365.062 197.892C364.955 197.804 364.844 197.721 364.728 197.645C364.849 197.537 364.945 197.405 365.012 197.257C365.078 197.109 365.113 196.949 365.113 196.787C365.113 195.937 364.27 195.378 363.536 194.963C362.591 194.421 361.668 193.847 360.767 193.241C361.75 192.78 362.602 192.081 363.245 191.206C364.061 189.895 364.395 188.34 364.19 186.81C364.141 185.584 363.683 184.41 362.889 183.474C362.432 182.994 361.857 182.638 361.378 182.18C360.135 180.974 359.714 179.172 359.198 177.515C358.515 175.335 357.446 173.053 355.455 171.89C354.496 171.338 353.377 171.076 352.439 170.487C351.502 169.899 350.717 168.78 351.044 167.711C351.262 166.985 351.938 166.49 352.396 165.873C352.942 165.074 353.152 164.092 352.979 163.14C352.806 162.187 352.265 161.342 351.473 160.786C350.935 160.444 350.274 160.146 350.165 159.514C349.743 159.406 349.361 159.181 349.062 158.865C348.764 158.548 348.561 158.153 348.479 157.726C348.315 156.872 348.315 155.994 348.479 155.139C348.667 153.795 348.856 152.443 349.038 151.099C349.358 151.233 349.701 151.303 350.048 151.303C350.395 151.303 350.739 151.233 351.058 151.099C351.691 152.117 352.421 153.071 353.239 153.947C355.451 156.558 357.175 159.547 358.326 162.77C358.74 163.94 359.161 165.24 360.237 165.851C360.607 166.062 361.029 166.171 361.392 166.396C361.84 166.708 362.225 167.103 362.526 167.559L365.135 171.018L365.179 171.2C365.203 171.299 365.243 171.395 365.295 171.483C365.456 171.664 365.679 171.778 365.92 171.803C368.594 172.42 371.595 172.987 373.914 171.534C376.007 170.219 376.922 167.639 378.696 165.902C379.953 164.674 381.733 163.722 382.089 161.999C381.665 161.866 381.248 161.711 380.839 161.534C381.203 161.171 381.566 160.757 382.06 160.27C382.778 159.569 383.426 158.8 383.993 157.973C384.604 156.949 385.092 155.856 385.447 154.718C386.847 150.721 388.252 146.726 389.662 142.734C390.33 140.837 390.999 138.94 391.842 137.102C392.714 135.111 393.746 133.192 394.698 131.237C397.148 126.176 399.041 120.864 400.344 115.395C400.574 114.642 400.651 113.852 400.57 113.069C400.366 111.812 399.414 110.831 398.506 109.93C397.593 108.941 396.551 108.078 395.41 107.365C394.837 107.008 394.199 106.769 393.533 106.662C392.866 106.555 392.185 106.581 391.529 106.74C389.669 107.292 388.499 109.196 388.07 111.1C387.641 113.004 387.801 114.981 387.62 116.914C387.358 119.711 386.399 122.408 386.166 125.213C386.043 126.841 386.166 128.483 385.97 130.096C385.614 132.22 384.875 134.261 383.79 136.121C381.433 140.549 378.242 144.48 374.393 147.697C373.95 148.075 373.492 148.424 373.056 148.831C373.056 148.511 373.107 148.199 373.151 147.886C372.834 147.966 372.526 148.073 372.228 148.206C372.265 147.842 372.228 147.473 372.119 147.123C371.537 145.386 368.95 144.943 368.485 143.17C368.407 142.733 368.366 142.291 368.362 141.847C368.209 140.299 367.155 138.991 366.792 137.487C366.429 135.983 366.712 134.58 366.065 133.287C365.512 132.484 364.863 131.752 364.132 131.106C363.259 130.109 362.629 128.922 362.293 127.64C362.199 127.284 362.112 126.913 362.01 126.557C362.121 125.753 362.031 124.934 361.748 124.174C361.087 122.524 359.379 121.47 358.762 119.813C358.282 118.527 358.493 116.906 357.584 115.903C357.103 115.424 356.512 115.07 355.862 114.872C352.537 113.577 349.046 112.76 345.492 112.444C343.5 112.263 341.306 112.154 339.881 110.758C338.217 109.13 338.137 106.202 336.19 104.945C334.475 103.833 332.047 104.661 330.717 106.216C330.518 106.446 330.333 106.689 330.165 106.943C329.923 105.971 329.871 104.962 330.013 103.971C330.013 103.716 330.063 103.462 330.085 103.244C333.362 102.179 336.154 99.9847 337.963 97.0524V97.0887L338.05 97.314C338.261 97.8445 338.595 98.3605 339.089 98.4113C339.419 98.4122 339.738 98.2963 339.99 98.0843C340.431 97.7818 340.835 97.4308 341.197 97.0378C341.378 96.8416 341.553 96.6309 341.72 96.4129C342.561 95.2756 343.115 93.9516 343.333 92.554C343.464 91.711 343.479 90.8389 343.624 90.0032C343.76 89.3483 343.937 88.7026 344.155 88.0701C344.227 87.8594 344.3 87.6486 344.365 87.4379C344.431 87.2271 344.525 86.9437 344.598 86.7112C345.053 85.2166 345.298 83.6659 345.325 82.1038C345.325 81.8421 345.325 81.5805 345.325 81.3189C345.297 80.2996 345.067 79.2959 344.648 78.3663C344.229 77.4368 343.629 76.6 342.883 75.9048C341.633 74.8874 339.976 74.4514 339.06 73.0706C338.464 72.1332 338.334 70.9341 337.985 69.8513C337.609 68.5454 336.874 67.371 335.865 66.4615C334.855 65.552 333.611 64.9439 332.273 64.7061C330.661 64.5286 329.044 64.976 327.752 65.956L327.651 66.0287C326.93 66.579 326.319 67.2593 325.848 68.0345C324.888 67.77 324.009 67.2704 323.29 66.581C322.564 65.9052 322.004 65.0549 321.27 64.4009C320.584 63.7727 319.742 63.3401 318.832 63.1484C317.922 62.9567 316.977 63.0127 316.096 63.3108C315.188 63.6743 314.38 64.2479 313.737 64.9843C313.094 65.7208 312.635 66.5992 312.397 67.5476C311.997 69.0519 312.07 70.7669 311.234 72.0242C310.587 72.9907 309.526 73.4776 308.785 74.3642C308.323 74.9246 308.008 75.5916 307.869 76.3045C307.781 76.7004 307.739 77.1053 307.746 77.5109C307.746 77.6853 307.746 77.867 307.789 78.0487C307.789 78.0487 307.789 78.1068 307.789 78.1286C307.816 78.33 307.857 78.5292 307.913 78.7245C308.12 79.4612 308.49 80.1419 308.996 80.7157C309.478 81.261 310.076 81.6907 310.747 81.9729C311.022 82.08 311.304 82.1698 311.59 82.2418L312.455 82.438L312.76 82.5107C311.719 84.4721 311.14 86.6462 311.07 88.8659C310.999 91.0856 311.438 93.2919 312.353 95.3155C312.353 95.5117 312.302 95.7152 312.281 95.9187C312.162 98.7827 312.289 101.652 312.659 104.494C312.76 105.613 312.818 106.863 312.128 107.75C311.814 108.104 311.46 108.421 311.074 108.694C311.467 108.186 311.866 107.677 312.273 107.176C311.249 106.144 309.628 106.013 308.175 106.122C305.36 106.325 302.628 107.16 300.181 108.564C298.553 109.494 296.881 110.744 295.021 110.518C293.924 110.402 292.841 109.792 291.773 110.082C291.172 110.328 290.611 110.661 290.108 111.071C289.71 111.355 289.232 111.505 288.742 111.5C287.601 110.09 285.835 109.138 284.469 107.997C282.912 106.614 281.489 105.089 280.218 103.44C277.863 100.606 275.516 97.7573 273.205 94.8867C271.257 92.474 269.259 89.8578 268.917 86.7693C268.882 86.4653 268.865 86.1596 268.866 85.8536C268.914 84.3862 269.099 82.9264 269.419 81.4933C269.506 81.1499 269.506 80.7902 269.419 80.4468C269.201 79.7201 268.365 79.444 267.645 79.2841C267.739 78.7282 267.805 78.1679 267.842 77.6054C268.249 71.3556 267.805 65.004 269.128 58.8851C269.629 56.5378 270.451 54.1468 272.144 52.439C274.796 49.7647 279.237 49.1179 281.271 45.8986C282.972 43.2533 282.296 39.5107 280.16 37.1779C278.023 34.8452 274.731 33.8932 271.599 34.0094C270.72 33.9854 269.853 34.2204 269.106 34.6853C268.409 35.3017 267.888 36.0915 267.595 36.9745L264.448 44.5105C263.544 46.4839 262.782 48.519 262.166 50.6005C261.294 53.7908 261.098 57.1409 260.407 60.353C260.407 62.8239 258.816 65.9052 257.944 68.1798C256.97 70.7451 255.916 73.2668 255.037 75.8758C254.819 76.5371 254.056 78.4774 253.583 80.2361C253.405 80.3374 253.239 80.4594 253.089 80.5994C252.71 81.0857 252.365 81.5981 252.057 82.1328C251.396 83.0121 250.32 83.4772 249.594 84.313C248.867 85.1487 248.714 86.7039 249.725 87.1254C249.93 87.1943 250.142 87.2406 250.357 87.2635C250.489 87.2746 250.62 87.2965 250.749 87.3289C251.839 87.6341 252.268 89.0149 252.108 90.1413C251.948 91.2677 251.382 92.3214 251.287 93.4551C251.091 95.4681 252.268 97.3285 253.402 99.0145C254.575 100.845 255.872 102.593 257.282 104.247C258.307 105.388 259.463 106.427 260.495 107.532C264.426 111.565 267.551 116.296 271.083 120.678C272.353 122.337 273.798 123.855 275.392 125.205C276.435 126.015 277.525 126.762 278.655 127.444C280.676 128.737 282.703 130.016 284.731 131.303C285.42 131.805 286.2 132.171 287.027 132.378C287.297 132.418 287.571 132.418 287.841 132.378C287.877 132.553 287.906 132.734 287.95 132.909C288.422 134.813 289.462 136.542 289.578 138.483C289.694 140.423 289.52 142.414 289.658 144.369C289.789 146.186 290.188 148.003 290.29 149.79C290.494 153.213 289.651 156.607 288.837 159.965C287.608 164.87 286.867 169.891 284.476 174.339C283.808 175.567 283.023 176.824 283.023 178.22C283.023 178.394 283.023 178.561 283.066 178.728L281.976 179.339C281.657 179.528 281.337 179.709 281.046 179.898C279.665 180.792 278.19 181.788 277.623 183.343C277.166 184.6 277.376 186.046 276.824 187.26C276.799 187.316 276.77 187.369 276.737 187.42C276.155 188.554 275 189.397 274.738 190.639C274.542 191.599 274.92 192.601 274.738 193.546C274.738 193.546 274.738 193.546 274.738 193.583C274.574 194.057 274.443 194.543 274.346 195.036C274.338 195.197 274.353 195.359 274.389 195.516C274.526 196.067 274.831 196.562 275.262 196.933C275.523 197.184 275.808 197.41 276.112 197.609C276.424 197.812 276.744 198.001 277.071 198.183L277.26 198.284C277.536 198.43 277.812 198.561 278.096 198.691L278.285 198.779C278.612 198.917 278.946 199.047 279.28 199.164L279.513 199.236C279.774 199.324 280.043 199.404 280.312 199.476L280.494 199.527L280.661 199.563L281.388 199.716L281.657 199.767C281.976 199.825 282.303 199.869 282.638 199.898C282.732 199.898 282.834 199.898 282.928 199.898C283.175 199.898 283.415 199.934 283.655 199.941H283.997C284.251 199.941 284.498 199.941 284.723 199.941H284.985C285.327 199.941 285.668 199.89 286.01 199.847H286.119C286.424 199.803 286.729 199.752 287.034 199.687L287.267 199.636C287.55 199.578 287.834 199.505 288.117 199.425L288.27 199.382C288.611 199.28 288.953 199.164 289.287 199.04C290.443 198.562 291.564 198.006 292.645 197.376C293.371 196.969 294.098 196.562 294.825 196.191C295.364 195.92 295.917 195.677 296.482 195.465C297.855 194.874 299.351 194.625 300.842 194.738C301.578 194.841 302.306 194.991 303.022 195.189C303.026 195.266 303.026 195.344 303.022 195.421C303.613 198.919 304.197 202.41 304.774 205.893C305.723 205.206 306.73 204.6 307.782 204.084C307.586 204.608 307.456 205.155 307.397 205.712C307.353 206.146 307.353 206.585 307.397 207.02C307.462 207.703 307.608 208.473 307.194 209.011C306.939 209.352 306.467 209.541 306.329 209.919C306.228 210.303 306.203 210.703 306.256 211.096C306.227 211.549 306.036 211.976 305.718 212.3C305.401 212.624 304.978 212.823 304.527 212.862C304.733 213.447 304.737 214.085 304.538 214.673C304.339 215.261 303.949 215.764 303.429 216.104C303.127 216.25 302.844 216.433 302.586 216.649C302.338 216.97 302.171 217.346 302.099 217.746C301.141 221.346 299.165 224.593 296.409 227.099C295.377 227.913 294.435 228.834 293.597 229.846C293.083 230.633 292.656 231.473 292.325 232.353C290.387 237.096 288.42 241.839 286.424 246.582C285.319 249.235 284.244 251.931 283.895 254.787C283.023 262.614 276.046 269.256 277.354 277.032C277.62 278.976 278.403 280.813 279.622 282.351C281.075 284.095 283.255 285.106 285.436 285.92C291.039 288.1 296.947 289.284 302.833 290.483L312.077 292.38C313.891 292.797 315.732 293.089 317.586 293.252C319.817 293.405 322.106 293.194 324.279 293.761C325.623 294.117 326.909 294.764 328.298 294.836C329.489 294.902 330.957 294.647 331.662 295.614C332.367 296.581 331.822 297.881 332.491 298.739C333.566 300.12 336.19 298.739 337.36 300.04C337.679 300.534 337.924 301.073 338.086 301.638C338.264 301.99 338.511 302.301 338.813 302.554C338.884 302.967 338.914 303.386 338.9 303.804C338.748 305.489 338.397 307.15 337.854 308.753C336.982 311.704 336.112 314.656 335.245 317.612C334.915 318.656 334.672 319.725 334.518 320.809C334.464 321.336 334.464 321.867 334.518 322.394C334.671 324 335.594 325.657 337.127 326.18C338.317 326.494 339.582 326.338 340.659 325.744C341.7 325.204 342.676 324.545 343.566 323.782C345.175 322.564 346.589 321.109 347.759 319.465C351.393 314.029 350.215 306.682 352.766 300.672C354.459 296.653 357.759 293.405 358.856 289.168C359.113 288.363 359.143 287.503 358.943 286.683C358.485 285.229 356.938 284.401 355.491 283.877H355.426C354.239 283.454 353.025 283.109 351.792 282.846C351.487 282.78 351.175 282.722 350.862 282.678C350.173 282.111 349.623 281.392 349.256 280.578C349.199 280.148 349.084 279.728 348.915 279.328C348.799 279.154 348.644 279.01 348.462 278.908C348.28 278.805 348.077 278.748 347.868 278.74C347.141 278.667 346.168 278.936 345.375 278.878C343.755 278.754 342.679 277.163 341.226 276.436C339.772 275.709 338.195 275.884 336.647 275.993C336.094 276.068 335.531 276.034 334.991 275.891C334.346 275.588 333.757 275.181 333.246 274.684C332.351 273.99 331.307 273.513 330.196 273.291C329.085 273.069 327.937 273.108 326.844 273.405C326.148 273.684 325.412 273.848 324.664 273.892C323.247 273.82 322.244 272.548 321.197 271.589C318.334 268.965 314.257 268.275 310.784 266.552C310.252 266.355 309.809 265.973 309.534 265.477C309.134 264.496 310.035 263.5 310.849 262.824L316.823 257.868C323.363 252.432 331.539 248.334 334.576 240.369C334.89 239.299 335.381 238.289 336.03 237.382C336.265 237.105 336.536 236.86 336.836 236.655C338.156 235.794 339.758 235.478 341.306 235.776C343.189 236.202 344.974 236.981 346.567 238.072C349.169 239.657 351.698 241.335 354.161 243.159C356.603 244.895 358.921 246.796 361.102 248.85C364.917 252.483 368.093 256.785 371.646 260.702C375.2 264.619 379.262 268.275 384.197 270.15C389.131 272.025 395.098 271.937 399.334 268.791C404.225 265.157 405.795 258.668 407.03 252.708C409.756 250.07 410.577 246.074 411.907 242.534C412.742 240.296 413.811 238.174 414.712 235.936C415.787 233.305 416.63 230.594 417.473 227.884C418.429 225.162 419.077 222.341 419.406 219.476C419.755 214.941 418.542 210.13 419.813 205.871C421.492 205.501 423.018 204.556 424.668 204.011C427.124 203.197 429.755 203.328 432.356 203.35H432.524C433.421 203.442 434.323 203.227 435.082 202.739C435.954 202.012 436.092 200.777 436.135 199.643C436.237 196.896 436.063 193.771 433.977 191.977ZM328.683 68.0054C328.082 68.1541 327.46 68.1983 326.844 68.1362L328.683 68.0054Z" fill="url(#paint1_linear)"/>
<path d="M331.545 113.985C330.665 114.732 329.634 115.28 328.522 115.591L323.37 117.437C320.572 118.44 317.65 119.45 314.7 119.087C313.05 118.883 305.979 117.844 304.911 116.558C303.283 114.566 308.988 111.638 310.936 109.959C311.377 109.642 311.786 109.281 312.156 108.883C312.883 107.997 312.789 106.754 312.687 105.635C312.317 102.8 312.191 99.9382 312.309 97.0815C312.366 96.4005 312.463 95.7234 312.6 95.0539C313.327 91.711 316.437 92.9319 318.893 93.8185C321.85 94.779 324.709 96.0175 327.432 97.5175C328.262 97.9451 328.982 98.5566 329.54 99.3052C330.615 100.933 330.186 103.07 330.012 105.119C329.859 106.711 329.867 108.237 330.862 109.392C331.363 109.834 331.823 110.32 332.236 110.846C332.468 111.374 332.527 111.964 332.403 112.528C332.279 113.092 331.978 113.602 331.545 113.985Z" fill="#BE6F72"/>
<path d="M260.371 61.6103C261.097 58.3836 261.257 55.0698 262.129 51.8795C262.757 49.8018 263.531 47.7715 264.447 45.8041L267.616 38.3189C267.909 37.4381 268.431 36.6507 269.128 36.037C269.874 35.5721 270.741 35.3371 271.62 35.3611C274.752 35.2449 278.044 36.2259 280.181 38.5224C282.318 40.8188 282.993 44.5614 281.293 47.1994C279.258 50.3679 274.818 51.0147 272.165 53.689C270.472 55.3895 269.651 57.7659 269.149 60.1132C267.827 66.2177 268.27 72.5547 267.863 78.7899C267.732 80.723 267.354 82.9395 265.683 83.9496C264.672 84.4414 263.549 84.6594 262.427 84.5819L257.66 84.6545C256.86 84.6545 253.961 85.156 253.43 84.5601C252.5 83.4991 254.622 78.2594 255.007 77.0894C255.865 74.4877 256.919 71.966 257.914 69.408C258.779 67.1479 260.371 64.0738 260.371 61.6103Z" fill="#BE6F72"/>
<path d="M358.805 289.917C357.708 294.117 354.408 297.387 352.715 301.391C350.164 307.387 351.313 314.719 347.708 320.141C346.538 321.782 345.124 323.236 343.515 324.45C342.622 325.209 341.647 325.865 340.608 326.405C339.531 326.999 338.266 327.156 337.076 326.841C335.543 326.318 334.62 324.661 334.467 323.062C334.413 322.538 334.413 322.01 334.467 321.485C334.62 320.403 334.863 319.336 335.194 318.295C336.066 315.349 336.936 312.404 337.803 309.458C338.346 307.858 338.697 306.199 338.849 304.516C338.944 302.685 337.781 300.301 338.275 298.594C338.5 297.823 339.343 297.14 339.729 296.493C340.275 295.563 340.696 294.563 340.979 293.521C341.574 291.494 341.981 289.328 343.231 287.62C344.047 286.607 345.001 285.714 346.066 284.968C346.851 284.279 347.772 283.762 348.769 283.449C349.736 283.279 350.729 283.326 351.676 283.587C352.909 283.85 354.122 284.195 355.31 284.619H355.375C356.828 285.142 358.369 285.949 358.827 287.417C359.052 288.236 359.044 289.101 358.805 289.917Z" fill="#3F3D56"/>
<path d="M436.128 200.574C436.084 201.7 435.946 202.957 435.074 203.662C434.314 204.148 433.412 204.361 432.516 204.265H432.32C429.725 204.265 427.087 204.12 424.631 204.927C422.763 205.544 421.048 206.678 419.101 206.903C416.419 207.209 413.897 205.741 411.521 204.462C409.283 203.256 406.986 202.165 404.639 201.191C403.098 200.559 399.951 200.152 399.21 198.466C398.956 197.668 398.743 196.858 398.571 196.039C398.449 195.673 398.301 195.316 398.127 194.971C397.691 194.234 397.414 193.415 397.313 192.565C397.316 191.718 397.609 190.898 398.142 190.24C398.735 189.538 399.46 188.96 400.277 188.54C401.094 188.12 401.986 187.865 402.902 187.791C404.733 187.648 406.575 187.746 408.381 188.081L426.273 190.654C427.654 190.85 429.042 191.046 430.401 191.381C431.692 191.604 432.908 192.138 433.947 192.936C436.062 194.709 436.237 197.827 436.128 200.574Z" fill="#3F3D56"/>
<path d="M420.401 205.225C418.221 209.825 419.791 215.268 419.399 220.355C419.068 223.206 418.419 226.012 417.466 228.719C416.623 231.423 415.78 234.134 414.704 236.757C413.803 238.937 412.735 241.117 411.899 243.341C410.569 246.887 409.719 250.877 407.023 253.515C405.787 259.46 404.217 265.957 399.327 269.561C395.075 272.701 389.153 272.81 384.189 270.913C379.226 269.016 375.192 265.382 371.639 261.465C368.085 257.548 364.909 253.297 361.101 249.649C358.915 247.597 356.591 245.696 354.146 243.959C351.68 242.171 349.154 240.483 346.567 238.894C344.974 237.804 343.188 237.027 341.305 236.604C339.759 236.308 338.158 236.62 336.836 237.476C336.536 237.681 336.264 237.926 336.029 238.203C335.382 239.109 334.891 240.116 334.576 241.183C331.538 249.133 323.377 253.217 316.822 258.624L310.812 263.602C309.998 264.278 309.097 265.266 309.497 266.247C309.772 266.743 310.215 267.125 310.747 267.323C314.22 269.038 318.297 269.728 321.161 272.344C322.207 273.304 323.21 274.568 324.627 274.641C325.375 274.597 326.111 274.433 326.807 274.154C327.901 273.858 329.048 273.82 330.159 274.042C331.269 274.264 332.314 274.74 333.21 275.433C333.71 275.946 334.295 276.369 334.939 276.683C335.479 276.826 336.043 276.86 336.596 276.785C338.144 276.676 339.786 276.538 341.175 277.228C342.563 277.918 343.703 279.546 345.324 279.663C346.116 279.721 347.061 279.459 347.817 279.532C348.025 279.538 348.228 279.595 348.41 279.696C348.592 279.797 348.748 279.94 348.863 280.113C349.033 280.512 349.148 280.933 349.205 281.363C349.503 282.388 350.506 283.013 351.16 283.856C352.163 285.149 352.308 286.908 352.206 288.543C351.868 293.643 349.59 298.42 345.84 301.893C344.773 302.984 343.412 303.741 341.923 304.073C341.177 304.229 340.401 304.147 339.705 303.838C339.009 303.529 338.427 303.008 338.042 302.351C337.88 301.785 337.635 301.246 337.316 300.752C336.146 299.466 333.522 300.832 332.447 299.458C331.778 298.601 332.258 297.227 331.618 296.341C330.979 295.454 329.438 295.614 328.253 295.563C326.865 295.49 325.579 294.836 324.235 294.495C322.055 293.928 319.773 294.139 317.542 293.986C315.688 293.823 313.847 293.531 312.033 293.114L302.767 291.217C296.881 290.018 290.973 288.805 285.37 286.661C283.226 285.847 281.068 284.844 279.556 283.1C278.337 281.567 277.554 279.735 277.289 277.795C275.973 270.041 282.95 263.413 283.829 255.601C284.142 252.752 285.283 250.063 286.358 247.418C288.33 242.689 290.297 237.958 292.259 233.225C292.589 232.347 293.015 231.509 293.531 230.725C294.367 229.713 295.31 228.795 296.343 227.985C299.097 225.486 301.073 222.247 302.033 218.654C302.105 218.255 302.272 217.878 302.52 217.557C302.778 217.341 303.061 217.158 303.363 217.012C303.882 216.674 304.273 216.172 304.472 215.585C304.671 214.999 304.667 214.362 304.461 213.778C304.912 213.741 305.335 213.543 305.652 213.22C305.969 212.897 306.16 212.471 306.19 212.019C306.137 211.626 306.162 211.226 306.263 210.842C306.437 210.464 306.873 210.275 307.128 209.941C307.542 209.396 307.397 208.633 307.331 207.95C307.288 207.517 307.288 207.082 307.331 206.649C307.49 205.11 308.179 203.674 309.279 202.587C311.016 200.879 313.487 201.322 315.885 200.915C318.277 200.399 320.613 199.652 322.861 198.684C329.167 196.2 335.806 194.664 342.563 194.128C349.341 193.602 356.147 194.69 362.424 197.303C363.339 197.674 364.201 198.163 364.989 198.757C365.549 199.188 366.007 199.736 366.334 200.363C366.602 201.132 366.932 201.878 367.322 202.594C368.099 203.655 369.567 203.996 370.418 204.999C371.268 206.002 371.341 207.695 372.046 208.938C373.056 210.711 375.396 211.533 376.093 213.458C376.311 214.069 376.34 214.737 376.5 215.37C376.893 216.954 378.07 218.204 379.109 219.454C382.919 224.011 385.358 229.554 386.144 235.442C386.376 231.757 388.855 228.494 391.958 226.459C392.793 225.914 393.76 225.311 393.927 224.323C394.138 223.073 392.924 221.961 393.004 220.689C393.092 220.068 393.343 219.482 393.731 218.989C395.116 216.981 396.636 215.07 398.28 213.269C399.174 212.288 400.177 211.089 399.806 209.796C399.523 208.829 398.535 208.262 397.989 207.419C397.671 206.917 397.509 206.332 397.522 205.737C397.534 205.142 397.723 204.565 398.062 204.076C398.571 203.386 399.377 202.885 399.625 202.063C399.908 201.097 399.276 200.05 399.472 199.055C399.738 198.257 400.265 197.574 400.969 197.114C401.933 196.237 403.029 195.516 404.217 194.978C406.136 194.251 408.273 194.52 410.307 194.803C413.708 195.276 417.524 196.003 419.442 198.851C420.692 200.617 421.317 203.321 420.401 205.225Z" fill="#65617D"/>
<path opacity="0.1" d="M436.127 200.574C436.084 201.7 435.946 202.957 435.074 203.662C434.314 204.148 433.412 204.361 432.516 204.265H432.319C432.617 202.754 434.456 201.889 434.776 200.356C434.83 199.885 434.788 199.407 434.65 198.954C434.513 198.5 434.283 198.079 433.976 197.718C432.421 195.617 429.921 194.455 427.436 193.604C420.414 191.197 412.892 190.634 405.591 191.969C403.605 192.293 401.674 192.887 399.85 193.735C399.245 194.113 398.663 194.526 398.105 194.971C397.669 194.234 397.392 193.415 397.292 192.565C397.294 191.718 397.587 190.898 398.12 190.24C398.713 189.538 399.439 188.96 400.255 188.54C401.072 188.12 401.964 187.865 402.88 187.791C404.711 187.648 406.553 187.746 408.359 188.081L426.251 190.654C427.632 190.85 429.02 191.046 430.379 191.381C431.67 191.604 432.887 192.138 433.925 192.936C436.062 194.709 436.236 197.827 436.127 200.574Z" fill="black"/>
<path opacity="0.1" d="M358.805 289.917C357.708 294.117 354.408 297.387 352.715 301.392C350.164 307.387 351.313 314.72 347.708 320.141C346.538 321.782 345.124 323.236 343.515 324.45C342.622 325.209 341.647 325.865 340.608 326.405C339.531 327 338.266 327.156 337.076 326.841C335.543 326.318 334.62 324.661 334.467 323.062C334.413 322.538 334.413 322.01 334.467 321.485L334.511 321.602C335.143 323.128 336.175 324.726 337.803 324.995C338.414 325.039 339.027 324.957 339.605 324.753C340.183 324.549 340.712 324.228 341.16 323.811C343.558 321.885 344.954 319.014 346.284 316.246C347.324 314.249 348.148 312.146 348.74 309.974C349.031 308.739 349.169 307.474 349.467 306.239C350.847 300.236 355.549 295.338 356.589 289.255C356.673 288.837 356.693 288.408 356.647 287.984C356.51 287.43 356.299 286.897 356.022 286.399C355.769 285.837 355.584 285.247 355.469 284.641C356.923 285.164 358.463 285.971 358.921 287.438C359.112 288.259 359.071 289.117 358.805 289.917Z" fill="black"/>
<path opacity="0.1" d="M347.831 279.495C347.159 281.254 346.027 282.8 344.554 283.972C342.485 285.548 340.063 286.596 337.497 287.024C336.303 287.329 335.05 287.314 333.864 286.981C332.251 286.421 331.088 284.91 329.438 284.473C328.261 284.154 326.996 284.437 325.804 284.263C323.661 283.965 321.996 282.33 320.267 281.022C314.969 277.039 308.014 275.753 302.717 271.77C302.481 271.626 302.286 271.423 302.15 271.182C302.048 270.921 302.011 270.639 302.041 270.361C302.06 267.945 302.603 265.562 303.632 263.377C304.475 261.852 305.479 260.422 306.626 259.111C311.372 253.297 316.139 247.44 321.822 242.535C324.206 240.478 326.807 238.559 329.816 237.629C331.487 237.113 334.787 236.626 336.822 237.498C336.521 237.703 336.25 237.948 336.015 238.225C335.368 239.13 334.877 240.137 334.561 241.205C331.524 249.155 323.363 253.239 316.808 258.646L310.812 263.602C309.998 264.278 309.097 265.266 309.497 266.247C309.772 266.744 310.215 267.125 310.747 267.323C314.221 269.038 318.297 269.728 321.161 272.345C322.207 273.304 323.21 274.568 324.627 274.641C325.375 274.597 326.112 274.433 326.807 274.154C327.901 273.858 329.048 273.82 330.159 274.042C331.27 274.264 332.314 274.74 333.21 275.433C333.71 275.946 334.295 276.369 334.939 276.683C335.48 276.826 336.043 276.86 336.596 276.785C338.144 276.676 339.787 276.538 341.175 277.228C342.563 277.918 343.704 279.546 345.324 279.663C346.131 279.684 347.076 279.423 347.831 279.495Z" fill="black"/>
<path d="M280.995 180.858C279.614 181.752 278.146 182.747 277.579 184.295C277.114 185.545 277.332 186.991 276.773 188.205C276.213 189.418 274.956 190.276 274.68 191.584C274.483 192.536 274.869 193.539 274.68 194.491C274.514 194.983 274.381 195.486 274.28 195.995C274.207 197.085 275.137 197.965 276.046 198.561C277.983 199.813 280.186 200.593 282.48 200.839C284.773 201.085 287.092 200.79 289.25 199.978C291.191 199.251 292.942 198.074 294.802 197.136C296.618 196.095 298.692 195.591 300.783 195.683C301.982 195.814 303.131 196.257 304.33 196.41C304.921 196.53 305.533 196.504 306.112 196.333C306.691 196.161 307.22 195.851 307.651 195.428C308.02 194.914 308.268 194.323 308.378 193.699C309.388 189.709 308.93 185.48 307.971 181.475C307.011 177.471 305.558 173.598 304.533 169.608C303.806 166.658 303.247 163.62 302.033 160.822C300.82 158.024 298.778 155.423 295.922 154.354C295.697 154.242 295.44 154.211 295.195 154.267C295.01 154.341 294.847 154.461 294.722 154.616C292.462 157.006 290.76 159.868 289.737 162.995C288.596 166.476 288.284 170.168 287.237 173.67C286.787 175.124 286.205 177.072 285.057 178.176C283.909 179.281 282.296 180.029 280.995 180.858Z" fill="#3F3D56"/>
<path opacity="0.1" d="M308.4 193.728C308.278 194.352 308.017 194.941 307.636 195.45C307.206 195.873 306.677 196.184 306.098 196.355C305.519 196.526 304.907 196.552 304.315 196.431C303.124 196.286 301.975 195.843 300.776 195.705C298.685 195.608 296.609 196.112 294.795 197.158C292.935 198.088 291.162 199.244 289.236 199.992C286.419 201.06 283.341 201.236 280.421 200.494C278.87 200.104 277.396 199.455 276.06 198.575C275.145 197.979 274.222 197.122 274.295 196.01C274.396 195.5 274.53 194.998 274.694 194.505C274.883 193.553 274.505 192.551 274.694 191.599C274.97 190.291 276.235 189.418 276.787 188.212C277.34 187.006 277.129 185.56 277.587 184.302C278.153 182.754 279.629 181.759 281.009 180.865C282.39 179.971 284.033 179.288 285.137 178.205C285.293 178.05 285.437 177.882 285.566 177.704C286.363 176.475 286.947 175.122 287.296 173.699C288.364 170.197 288.655 166.512 289.788 163.024C290.816 159.898 292.521 157.037 294.781 154.645C294.902 154.489 295.062 154.368 295.246 154.296C295.491 154.246 295.746 154.277 295.973 154.383C298.821 155.459 300.863 158.06 302.084 160.858C303.305 163.656 303.821 166.672 304.584 169.637C305.602 173.627 307.062 177.5 308.022 181.504C308.981 185.509 309.41 189.731 308.4 193.728Z" fill="black"/>
<path opacity="0.1" d="M330.012 105.097C326.595 106.183 322.897 105.967 319.629 104.492C316.361 103.016 313.754 100.385 312.309 97.1033C312.366 96.4223 312.463 95.7452 312.6 95.0757C313.327 91.7328 316.437 92.9537 318.893 93.8403C321.85 94.8008 324.709 96.0393 327.432 97.5393C328.262 97.9669 328.982 98.5784 329.54 99.327C330.615 100.933 330.186 103.07 330.012 105.097Z" fill="black"/>
<path d="M325.623 105.046C333.65 105.046 340.157 98.5391 340.157 90.5119C340.157 82.4848 333.65 75.9775 325.623 75.9775C317.596 75.9775 311.088 82.4848 311.088 90.5119C311.088 98.5391 317.596 105.046 325.623 105.046Z" fill="#BE6F72"/>
<path opacity="0.1" d="M365.062 199.135C365.062 200.341 363.427 200.726 362.213 200.661C357.853 200.406 353.587 199.207 349.27 199.571C343.813 200.065 338.798 203.081 333.326 203.357C331.219 203.466 329.075 203.153 326.996 203.539C324.307 204.04 321.909 205.675 319.169 205.908C316.793 206.111 314.446 205.217 312.069 205.312C310.418 205.415 308.809 205.876 307.353 206.663C307.512 205.125 308.201 203.689 309.301 202.601C311.037 200.893 313.508 201.337 315.907 200.93C318.299 200.413 320.635 199.666 322.883 198.699C329.189 196.214 335.828 194.678 342.584 194.142C349.363 193.616 356.169 194.705 362.446 197.318C363.36 197.688 364.223 198.177 365.011 198.771C365.047 198.889 365.065 199.012 365.062 199.135Z" fill="black"/>
<path d="M318.901 117.052L313.014 114.872L310.529 113.963C309.516 113.536 308.45 113.25 307.36 113.113C304.511 112.895 301.83 114.792 300.311 117.212C298.792 119.632 298.218 122.517 297.731 125.336C297.063 129.183 296.496 133.044 296.031 136.92C295.53 140.418 295.275 143.946 295.268 147.479C295.435 156.484 297.339 165.357 299.432 174.114C300.457 177.994 301.231 181.936 301.75 185.916C301.924 187.558 302.004 189.215 302.179 190.857C302.368 192.711 302.673 194.549 302.978 196.38L304.729 206.823C306.91 205.275 309.388 203.917 312.069 203.837C314.446 203.749 316.8 204.636 319.169 204.44C321.895 204.207 324.307 202.572 326.996 202.071C329.075 201.685 331.218 201.991 333.333 201.889C338.798 201.613 343.82 198.597 349.27 198.103C353.594 197.718 357.889 198.938 362.22 199.186C363.427 199.258 365.062 198.873 365.062 197.659C365.062 196.816 364.219 196.257 363.485 195.843C360.028 193.755 356.736 191.405 353.638 188.815C350.774 186.548 347.868 184.222 345.898 181.156C341.153 173.779 342.781 163.794 338.733 156.018C335.441 149.689 338.733 141.404 338.733 134.282C338.733 130.729 338.733 127.131 337.897 123.672C337.375 121.741 336.724 119.848 335.949 118.004L333.122 110.846C333.064 110.636 332.948 110.448 332.788 110.301C332.597 110.172 332.371 110.106 332.141 110.112C330.445 110.008 328.77 110.542 327.447 111.609C326.117 112.691 325.267 114.247 323.959 115.38C322.527 116.645 320.681 117.706 318.901 117.052Z" fill="#E3E8F4"/>
<path d="M328.399 112.931C328.864 110.94 329.365 108.862 330.695 107.306C332.025 105.751 334.452 104.93 336.167 106.042C338.115 107.306 338.195 110.228 339.859 111.856C341.313 113.251 343.493 113.353 345.469 113.534C349.024 113.858 352.515 114.68 355.84 115.976C356.488 116.177 357.079 116.531 357.562 117.008C358.47 118.04 358.289 119.624 358.739 120.911C359.357 122.568 361.065 123.621 361.726 125.271C362.453 127.102 361.726 129.152 361.116 131.034C360.018 134.42 359.328 137.93 358.26 141.324C357.191 144.718 355.673 148.061 353.173 150.612C352.068 151.753 350.426 152.792 348.972 152.123L348.413 156.149C348.249 157.001 348.249 157.877 348.413 158.729C348.495 159.156 348.698 159.551 348.996 159.867C349.295 160.184 349.677 160.409 350.099 160.517C350.208 161.142 350.869 161.44 351.407 161.781C351.804 162.053 352.143 162.4 352.405 162.804C352.666 163.207 352.845 163.659 352.931 164.132C353.017 164.605 353.008 165.091 352.905 165.56C352.801 166.03 352.606 166.475 352.33 166.868C351.872 167.486 351.196 167.973 350.978 168.707C350.651 169.775 351.429 170.887 352.373 171.476C353.318 172.064 354.43 172.319 355.389 172.878C357.38 174.034 358.449 176.287 359.132 178.489C359.64 180.146 360.062 181.933 361.312 183.14C361.792 183.605 362.366 183.954 362.824 184.433C363.617 185.366 364.075 186.538 364.124 187.762C364.323 189.281 363.99 190.822 363.18 192.122C361.726 194.208 359.016 194.818 356.639 195.755C352.78 197.34 349.604 200.174 346.203 202.587C344.818 203.702 343.186 204.47 341.443 204.825C339.089 205.145 336.771 204.098 334.402 204.011C332.984 204.018 331.573 204.201 330.201 204.556L325.841 205.501C326.073 202.122 324.213 198.742 323.174 195.523C321.212 189.462 320.848 182.972 321.313 176.628C321.778 170.284 323.072 164.012 324.351 157.77C325.245 153.41 325.158 148.853 326.531 144.616C327.817 140.539 329.656 136.622 330.332 132.386C331.436 125.525 326.844 119.712 328.399 112.931Z" fill="#3F3D56"/>
<path d="M361.457 126.361C361.858 127.099 362.14 127.897 362.293 128.723C362.629 130.003 363.258 131.187 364.131 132.182C364.861 132.829 365.51 133.561 366.065 134.362C366.733 135.627 366.479 137.167 366.791 138.555C367.155 140.06 368.208 141.368 368.361 142.916C368.365 143.359 368.407 143.802 368.484 144.238C368.957 146.004 371.544 146.418 372.118 148.177C372.503 149.325 371.842 150.561 371.966 151.76C372.056 152.131 372.078 152.515 372.031 152.894C371.869 153.323 371.58 153.693 371.202 153.955C368.8 156.257 367.136 159.222 366.421 162.472C365.72 165.701 365.352 168.993 365.323 172.297L362.482 168.54C362.179 168.086 361.795 167.691 361.348 167.377C360.985 167.159 360.563 167.05 360.193 166.839C359.117 166.229 358.696 164.928 358.281 163.765C357.129 160.548 355.405 157.564 353.194 154.957C352.039 153.606 350.694 152.232 350.44 150.466C350.364 149.658 350.408 148.842 350.571 148.046C351.298 143.279 352.075 138.41 354.393 134.18C355.476 132.204 356.879 130.416 357.918 128.41C358.616 127.073 359.597 123.614 361.457 126.361Z" fill="#3F3D56"/>
<path d="M289.766 130.939C289.78 131.551 289.624 132.155 289.316 132.683C289.042 133.012 288.682 133.257 288.276 133.392C287.87 133.527 287.435 133.546 287.019 133.446C286.192 133.239 285.412 132.874 284.723 132.371C282.698 131.092 280.673 129.81 278.647 128.527C277.517 127.845 276.427 127.098 275.384 126.288C273.791 124.943 272.346 123.43 271.075 121.775C267.543 117.415 264.418 112.684 260.487 108.658C259.418 107.568 258.307 106.522 257.275 105.381C255.864 103.731 254.568 101.988 253.394 100.163C252.26 98.484 251.083 96.6236 251.279 94.6178C251.395 93.4842 251.941 92.4377 252.1 91.3113C252.26 90.1848 251.832 88.8113 250.741 88.5061C250.613 88.4737 250.481 88.4519 250.349 88.4407C250.134 88.4179 249.922 88.3716 249.717 88.3026C248.707 87.8811 248.859 86.3187 249.586 85.4975C250.313 84.6763 251.388 84.2185 252.05 83.3173C252.357 82.7826 252.702 82.2702 253.081 81.784C253.568 81.3667 254.149 81.0748 254.775 80.9337C258.967 79.6984 263.401 79.531 267.674 80.4468C268.401 80.6067 269.229 80.8974 269.447 81.6023C269.534 81.9457 269.534 82.3054 269.447 82.6488C269.127 84.0817 268.942 85.5415 268.895 87.0091C268.894 87.315 268.911 87.6208 268.946 87.9247C269.287 91.006 271.286 93.615 273.233 96.0204C275.544 98.8837 277.892 101.725 280.246 104.559C281.52 106.202 282.943 107.722 284.498 109.101C285.951 110.308 287.833 111.282 288.967 112.829C289.89 114.079 289.592 115.787 289.694 117.291C290.032 121.834 290.056 126.394 289.766 130.939Z" fill="#3F3D56"/>
<path d="M382.06 161.258C382.776 160.554 383.424 159.782 383.993 158.954C384.605 157.933 385.093 156.843 385.446 155.706L389.661 143.751C390.33 141.862 390.998 139.965 391.841 138.134C392.714 136.143 393.745 134.239 394.697 132.284C397.145 127.247 399.038 121.959 400.344 116.514C400.575 115.764 400.651 114.976 400.569 114.196C400.366 112.946 399.414 111.965 398.505 111.071C397.592 110.082 396.551 109.219 395.41 108.506C394.25 107.793 392.854 107.568 391.529 107.881C389.669 108.433 388.499 110.33 388.07 112.241C387.641 114.152 387.801 116.107 387.619 118.055C387.358 120.845 386.398 123.534 386.166 126.332C386.042 127.953 386.166 129.595 385.97 131.208C385.612 133.325 384.873 135.358 383.789 137.211C381.442 141.635 378.261 145.564 374.422 148.78C373.369 149.558 372.421 150.469 371.602 151.491C370.92 152.514 370.457 153.667 370.243 154.878C369.76 156.724 369.969 158.683 370.832 160.386C372.017 162.399 374.291 163.293 376.464 163.743C379.371 164.347 380.047 163.315 382.06 161.258Z" fill="#BE6F72"/>
<path d="M325.71 69.4516C326.337 68.2772 327.295 67.3129 328.466 66.6786C329.636 66.0442 330.967 65.7677 332.294 65.8834C333.63 66.12 334.873 66.726 335.883 67.6328C336.892 68.5395 337.628 69.7108 338.006 71.014C338.347 72.0968 338.485 73.2959 339.081 74.2261C339.983 75.6287 341.654 76.0357 342.904 77.0531C343.65 77.7469 344.25 78.5824 344.669 79.5107C345.088 80.439 345.318 81.4416 345.346 82.4599C345.415 84.5424 345.087 86.619 344.379 88.5788C344.079 89.4139 343.836 90.2686 343.652 91.1369C343.507 91.9726 343.493 92.8374 343.362 93.6804C343.202 94.7768 342.824 95.8301 342.25 96.7776C341.676 97.7251 340.917 98.5476 340.019 99.1962C339.766 99.4082 339.447 99.5241 339.118 99.5232C338.551 99.4651 338.202 98.7965 337.991 98.2079C336.836 94.8722 337.112 90.7881 334.983 88.1355C334.015 87.0515 332.838 86.174 331.523 85.5557C330.992 85.2101 330.392 84.9844 329.765 84.8944C328.842 84.9404 327.956 85.2647 327.221 85.8246C325.684 86.8476 323.983 87.5998 322.192 88.0483C321.297 88.2572 320.367 88.2652 319.469 88.0717C318.57 87.8781 317.726 87.488 316.996 86.9292C315.993 86.0935 315.26 84.8508 314.148 84.204C313.036 83.5572 311.873 83.6008 310.776 83.1502C310.077 82.85 309.455 82.3938 308.96 81.8165C308.464 81.2392 308.107 80.5561 307.917 79.8196C307.726 79.083 307.706 78.3126 307.859 77.5673C308.012 76.822 308.334 76.1216 308.799 75.5197C309.526 74.6404 310.601 74.1534 311.248 73.1869C312.084 71.9297 312.011 70.2146 312.411 68.7176C312.65 67.7717 313.11 66.8959 313.753 66.162C314.396 65.4281 315.204 64.857 316.11 64.4953C316.99 64.1979 317.935 64.1415 318.844 64.3319C319.754 64.5222 320.597 64.9526 321.284 65.5782C322.011 66.2322 322.592 67.0825 323.304 67.7583C324.007 68.4314 324.868 68.9171 325.808 69.1711C326.747 69.425 327.736 69.439 328.682 69.2118" fill="#3F3D56"/>
<path opacity="0.1" d="M337.657 176.396C337.234 176.772 336.934 177.268 336.797 177.818C336.66 178.367 336.691 178.945 336.887 179.477C337.047 179.819 344.547 178.38 345.339 178.263C347.315 177.98 350.782 178.118 352.112 176.316C354.481 173.111 347.141 173.816 345.797 173.932C343.239 174.215 339.605 174.528 337.657 176.396Z" fill="black"/>
<path d="M269.433 82.6488C269.112 84.0817 268.927 85.5416 268.88 87.0091C266.7 87.4524 264.433 86.7257 262.34 85.999L256.33 83.9496C255.964 83.716 255.523 83.6303 255.097 83.7099C254.67 83.7896 254.29 84.0286 254.033 84.3784C253.067 85.3813 251.737 87.2852 250.4 88.4117C250.185 88.3888 249.973 88.3426 249.768 88.2736C248.757 87.8521 248.91 86.2896 249.637 85.4685C250.363 84.6473 251.439 84.1894 252.1 83.2883C252.408 82.7536 252.753 82.2412 253.132 81.7549C253.619 81.3377 254.2 81.0458 254.826 80.9047C259.017 79.6693 263.452 79.5019 267.725 80.4177C268.452 80.5776 269.28 80.8683 269.498 81.5732C269.569 81.9314 269.546 82.3018 269.433 82.6488Z" fill="#3F3D56"/>
<path opacity="0.1" d="M269.433 82.6488C269.112 84.0817 268.927 85.5416 268.88 87.0091C266.7 87.4524 264.433 86.7257 262.34 85.999L256.33 83.9496C255.964 83.716 255.523 83.6303 255.097 83.7099C254.67 83.7896 254.29 84.0286 254.033 84.3784C253.067 85.3813 251.737 87.2852 250.4 88.4117C250.185 88.3888 249.973 88.3426 249.768 88.2736C248.757 87.8521 248.91 86.2896 249.637 85.4685C250.363 84.6473 251.439 84.1894 252.1 83.2883C252.408 82.7536 252.753 82.2412 253.132 81.7549C253.619 81.3377 254.2 81.0458 254.826 80.9047C259.017 79.6693 263.452 79.5019 267.725 80.4177C268.452 80.5776 269.28 80.8683 269.498 81.5732C269.569 81.9314 269.546 82.3018 269.433 82.6488Z" fill="black"/>
<path opacity="0.1" d="M324.409 220.646C325.456 220.987 326.589 221.496 326.945 222.55L318.53 220.406L314.17 219.301C313.399 219.105 310.638 218.872 310.129 218.269C309.402 217.383 311.982 218 312.447 218.066C313.857 218.269 315.267 218.487 316.67 218.742C319.315 219.221 321.858 219.999 324.409 220.646Z" fill="black"/>
<path opacity="0.1" d="M327.672 228.087C326.945 227.6 324.86 227.666 323.966 227.448C322.658 227.135 321.371 226.721 320.085 226.321C317.476 225.471 314.889 224.505 312.207 223.887C311.713 223.771 310.027 223.749 310.107 223.116C310.187 222.484 311.793 222.273 312.193 222.244C314.569 222.07 317.534 223.189 319.744 223.981C322.558 224.99 325.224 226.371 327.672 228.087Z" fill="black"/>
<path opacity="0.1" d="M322.338 213.974C319.671 213.248 317.251 211.598 314.504 211.278C313.789 211.298 313.087 211.084 312.506 210.668C312.183 210.348 311.958 209.942 311.859 209.498C313.697 209.403 315.834 210.188 317.506 210.915C318.423 211.315 319.307 211.787 320.151 212.325C320.761 212.732 321.677 213.793 322.338 213.974Z" fill="black"/>
<path d="M373.179 148.926C372.728 151.947 373.381 155.03 375.017 157.609C376.653 160.189 379.163 162.093 382.089 162.973C381.733 164.695 379.952 165.647 378.695 166.876C376.922 168.605 376.006 171.178 373.913 172.486C371.58 173.939 368.579 173.372 365.919 172.762C365.678 172.738 365.455 172.623 365.294 172.442C365.242 172.354 365.203 172.258 365.178 172.159C364.299 168.932 363.725 165.495 364.626 162.275C365.352 159.521 367.097 157.188 368.492 154.754C369.887 152.319 370.018 149.725 373.179 148.926Z" fill="#3F3D56"/>
<path d="M308.203 107.256C305.391 107.463 302.66 108.295 300.209 109.69C298.581 110.628 296.91 111.87 295.049 111.645C293.952 111.529 292.869 110.918 291.801 111.209C291.201 111.455 290.64 111.788 290.137 112.197C289.883 112.4 289.58 112.533 289.259 112.584C288.939 112.635 288.61 112.602 288.306 112.488L287.579 122.546C287.303 126.376 287.034 130.278 287.949 134.006C288.422 135.903 289.461 137.64 289.577 139.565C289.694 141.491 289.519 143.482 289.657 145.437C289.788 147.247 290.188 149.027 290.289 150.844C290.493 154.26 289.65 157.639 288.836 160.96C287.608 165.858 286.867 170.865 284.476 175.306C283.807 176.526 283.022 177.784 283.022 179.179C283.022 179.346 283.022 179.521 283.066 179.688C282.339 180.087 281.663 180.458 281.046 180.858C279.665 181.752 278.19 182.747 277.623 184.295C277.165 185.552 277.376 186.991 276.823 188.205C276.271 189.418 275.007 190.283 274.73 191.591C274.534 192.543 274.912 193.546 274.73 194.498C274.566 194.991 274.432 195.493 274.331 196.003C274.258 197.093 275.181 197.972 276.097 198.568C277.432 199.448 278.906 200.097 280.457 200.486L284.861 183.263C288.804 175.952 292.085 168.303 294.664 160.408C295.403 157.827 296.353 155.311 297.506 152.886C298.327 151.51 299.055 150.08 299.686 148.606C300.347 146.775 300.413 144.791 300.732 142.865C301.113 140.606 301.684 138.384 302.44 136.223C303.225 133.897 304.133 131.564 304.293 129.115C304.533 125.612 303.261 121.921 304.613 118.672C305.187 117.459 305.934 116.336 306.83 115.337C308.705 113.04 310.412 110.642 312.287 108.338C311.277 107.277 309.657 107.154 308.203 107.256Z" fill="#3F3D56"/>
<g opacity="0.1">
<path opacity="0.1" d="M328.682 67.0607L327.774 67.1261L327.665 67.206C328.008 67.1938 328.349 67.1451 328.682 67.0607Z" fill="black"/>
<path opacity="0.1" d="M345.31 82.1546C345.157 83.5993 344.845 85.0227 344.379 86.3987C344.079 87.2338 343.836 88.0884 343.653 88.9567C343.507 89.7924 343.493 90.6572 343.362 91.5002C343.203 92.5967 342.825 93.6499 342.251 94.5975C341.676 95.545 340.917 96.3675 340.019 97.0161C339.767 97.2281 339.448 97.3439 339.118 97.3431C338.551 97.2849 338.202 96.6164 337.992 96.0277C336.836 92.6921 337.112 88.6079 334.983 85.9554C334.015 84.8713 332.839 83.9938 331.524 83.3755C330.993 83.0299 330.392 82.8042 329.765 82.7142C328.843 82.7602 327.956 83.0845 327.222 83.6444C325.685 84.6675 323.984 85.4196 322.193 85.8682C321.298 86.077 320.368 86.085 319.469 85.8915C318.571 85.698 317.726 85.3078 316.997 84.749C315.994 83.9133 315.26 82.6706 314.148 82.0238C313.036 81.377 311.873 81.4206 310.776 80.9701C310.09 80.6782 309.479 80.2351 308.988 79.6739C308.497 79.1126 308.14 78.4477 307.942 77.7289C307.915 77.6386 307.895 77.5463 307.884 77.4528C307.702 78.264 307.722 79.1073 307.942 79.9091C308.14 80.6279 308.497 81.2928 308.988 81.854C309.479 82.4153 310.09 82.8584 310.776 83.1502C311.873 83.6008 313.109 83.6008 314.148 84.204C315.187 84.8072 315.994 86.0935 316.997 86.9292C317.726 87.488 318.571 87.8781 319.469 88.0717C320.368 88.2652 321.298 88.2572 322.193 88.0483C323.984 87.5998 325.685 86.8476 327.222 85.8246C327.956 85.2647 328.843 84.9404 329.765 84.8944C330.392 84.9844 330.993 85.2101 331.524 85.5557C332.832 86.1714 334.004 87.0437 334.968 88.121C337.098 90.7735 336.822 94.8577 337.977 98.1933C338.188 98.7892 338.537 99.4506 339.103 99.5087C339.433 99.5095 339.752 99.3937 340.005 99.1817C340.903 98.5331 341.662 97.7106 342.236 96.7631C342.81 95.8156 343.188 94.7623 343.348 93.6659C343.478 92.8229 343.493 91.9581 343.638 91.1224C343.822 90.2541 344.065 89.3994 344.365 88.5643C345.073 86.6045 345.401 84.5278 345.331 82.4453C345.339 82.3581 345.324 82.2564 345.31 82.1546Z" fill="black"/>
</g>
<defs>
<linearGradient id="paint0_linear" x1="31298.8" y1="186691" x2="67194.3" y2="186691" gradientUnits="userSpaceOnUse">
<stop stop-color="#808080" stop-opacity="0.25"/>
<stop offset="0.54" stop-color="#808080" stop-opacity="0.12"/>
<stop offset="1" stop-color="#808080" stop-opacity="0.1"/>
</linearGradient>
<linearGradient id="paint1_linear" x1="342.578" y1="326.405" x2="342.578" y2="34.0458" gradientUnits="userSpaceOnUse">
<stop stop-color="#808080" stop-opacity="0.25"/>
<stop offset="0.54" stop-color="#808080" stop-opacity="0.12"/>
<stop offset="1" stop-color="#808080" stop-opacity="0.1"/>
</linearGradient>
</defs>
</svg>
