<?xml version="1.0" encoding="utf-8"?>
<!-- Generator: Adobe Illustrator 24.0.2, SVG Export Plug-In . SVG Version: 6.00 Build 0)  -->
<svg version="1.1" id="Layer_1" xmlns="http://www.w3.org/2000/svg" xmlns:xlink="http://www.w3.org/1999/xlink" x="0px" y="0px"
	 viewBox="0 0 471 441" style="enable-background:new 0 0 471 441;" xml:space="preserve">
<style type="text/css">
	.st0{opacity:0.5;}
	.st1{fill:#3C3C3C;}
	.st2{fill:#9F9E9F;}
	.st3{fill:#F3F2F2;}
	.st4{fill-opacity:0.35;}
</style>
<g class="st0">
	<path class="st1" d="M399.9,204.8c0.9,2.4,2,1.6,3.8,0.8c4.9-2.1,9.8-4.5,15.3-4.6c-8.6,3.1-13.1,11.9-21.9,14.8
		c-2.9,1-5.5,3.1-7.4,5.8c-5.1,6.9-11.9,11.5-20,14.1c-6.8,2.2-11,7.9-15.9,12.5c-12.7,11.9-27.3,21.1-44.6,22.3
		c-9.7,0.7-14.2,6.2-19.8,11.6c-9.9,9.7-21.5,16.1-35.1,18.4c-9.3,1.5-20.5-7-22.6-16.2c-0.2-1.2-0.2-1.8-1.7-1.1
		c-1,0.5-2.2,0.4-3.3,0.7c-9,2.6-22-1.6-27.6-8.9c-2.6-3.4-1.8-7.3-0.8-12c-6.1,1.7-11.9,1.6-17.5-0.9c-4.6-2-9.9-2.8-10.5-9.3
		c-0.1-1.6-1.7-1.2-2.8-0.9c-5.8,1.8-11.6,4-17.8,4.5c-2.6,0.2-1.2,2.1-0.9,3.4c3.4,12.8,6.9,25.6,10.3,38.4
		c4.3,15.8,8.7,31.6,13,47.5c1.6,5.8,0.4,7.8-5.6,9.4c-26.5,7.3-53.1,14.4-79.7,21.6c-6.4,1.7-8.1,0.8-9.9-5.8
		c-10.4-38.2-20.7-76.1-31.1-114c-1.9-7.1-0.9-8.9,6-10.8c17.1-4.7,34-9.5,51.3-13.9c4.8-1.1,6.9-3.9,8.9-8
		c6.9-14.4,12.3-29.7,22.1-42.6c3.1-1.9,4.9-4.5,5.2-8.1c1.7-2.8,3.3-5.7,5.1-8.5c0.6-0.9,1.2-2.1,2.1-2.6
		c19.2-12.6,36.2-27.6,52.6-43.5c4-3.9,7.6-8.4,11.6-12.3c3.5-3.3,7-4.9,11.9-3.5c13.4,3.8,27.2,2.7,40.9,3.1
		c12.9,0.5,25.9-0.4,38.7,1.6c10.9,1.7,21.4,4.9,31.8,8.5c6.9,2.3,12.9,2.3,19.4-1.8c8.3-5.2,17.8-8,26.9-11.7
		c1.5-0.6,34.5-11.7,35.2-10c0.3,0.9-30.8,13.7-33.3,14.5c-9.4,3.3-18.4,7.8-27.1,12.5c-1.8,1-3.8,1.7-4.6,4.1
		c-0.9,2.8-3.4,1.1-5,0.7c-9.4-2.5-18.9-5.1-28.3-8c-12.2-3.6-24.6-5-37.3-4.3c-11.1,0.7-22.2,0.6-33.3,0.4c-6.2-0.1-11.9-3-18-4.5
		c-8.3-1.9-13.7,1.3-18.9,6.3c-8.5,8.3-16.2,18-26.6,23.8c-9.8,5.3-17.5,13.1-26.6,19c-7.5,4.7-10.9,12.8-15.4,19.7
		c-10,15.1-20,30.3-27.1,47.2c-1.5,3.5-1.9,5.5,2,7.6c6.6,3.5,6.4,3.8,11.9-1.9c7.3-7.5,7.3-7.5-1.8-13.2c-0.1-0.1-0.1-0.3-0.2-0.4
		c3.2-0.4,5.3,0.6,9.8,3.6c1.3,0.9,2.4,3.7,4.8,1.4c0.4-0.2,0.6-0.4,1-0.6c0.5,0,0.9,0,1.4,0c1.7,1.4,2.5,0.4,3.4-1
		c0.4-0.2,0.8-0.6,1.3-0.8c1.1-1,2.9-1.2,3-3.1c-1-3.6,3-4.5,4.2-7c1.7-3.6,4.4-6.7,6.4-10.2c1.2-2-2.5-9-5.2-10.6
		c-1.5-0.8-3-1.8-4.5-2.6c1.4-2.4,3-1.3,4.7-0.5c4.7,2.5,8.6,6,10.7,10.7c1.7,3.9,2.9,2.2,4.4,0.3c-0.1-2.1-5-0.5-3.2-4.1
		c0.4-0.2,0.7-0.4,1-0.5c3.2-1.8,7.3-2.6,9-6.4c0.2-0.2,0.5-0.5,0.7-0.7c7.6-2.5,13.9-6.8,18.5-13.4c1.5-2,0-3.7-0.9-5.4
		c-3.3-6.5-4.6-13.2-2-20.5c0.9,3.9,1,8,3.2,12.6c2.1-4.5-0.7-8.5,0.9-12l-0.1,0c1.8,1.6,2.7,1,3.5-1.3c1.4-4.1,2.6-8.3,5.9-12
		c0.1,6.7-3.1,12.5-2.3,18.8c-0.1,0.8-1,2,0.4,2.2c0.8,0.1,0.9-1.1,0.8-2c1.1-3.9,2-8,3.2-11.9c1.6-5.4,4.2-9.9,10.2-11.5
		c0.2,1.8-2.7,3.7-0.3,5.2c2.3,1.3,4.3-0.1,6.5-2.2c-4,0.4-4.7,3.6-6.1,5.5c-3.6,5.1-5.1,10.9-6.7,17.1c-1.7,6.8-0.1,16-8.7,20.5
		c-4.2,2.2-7.5,6-11.2,9c-0.6-0.1-1,0.1-0.9,0.8c-0.7,0.6-1.4,1.2-2.1,1.7c-1.4-1.2-2.8-2.2-4.2-3.4c-0.2,0.1-0.4,0.3-0.5,0.5
		c1,1.4,1.9,2.7,2.9,4.1c-10.8,7.8-22.4,14.5-30.8,25.6c-5.5,7.3-14,11.3-21.8,15.9c-3.4,2-7,3.5-9.5,7.1c-3.9,5.3-3.6,7.6,2.2,11.1
		c-0.8,2-2.6-0.7-3.9,1.2c4.4,3.7,9.3,5.8,15.2,5.3c10.3-0.8,19.8-4.7,29.5-7.6c10.6-3.1,18.4-9.4,25.6-17.2
		c8.4-9.1,18.5-15.9,30.4-19.8c4.5-1.4,8.4-4.9,13.6-4.6c1.2,0,1.7-0.5,1.6-1.8c0-0.8,1.1-2,1.6-1.2c3.1,4.3,4.8-0.1,6.4-1.2
		c2.9-1.9,5.4-4.4,7.7-7c2.2-2.4,3.3-5.9,7.9-5.1c2.6,0.4,3.3-3.3,5.7-5c-0.7,4.4-4.7,6.5-5.2,10.4c-0.9,0.5-0.8,1.3-0.7,2.1
		c-0.5,0.4-0.9,0.9-1.4,1.3c-2.4,2-4.7,4-7,5.9c-2.2,1.4-4.4,2.7-7,4.1c4.1,2.3,7.9,0.4,11.7-0.1c-0.4,1.6-1.5,1.8-2.7,2.1
		c-0.9,0.1-1.4,0.5-1.7,1.3c0.5,0.1,1.1,0.2,1.6,0.4c7.6,2.4,15.6,2.9,22.9,6.9c1,0.6,3.3-1.2,5.2-0.5c-0.1,0.3-0.1,0.8-0.2,1.1
		c-0.3,0.4-1.7,0.6-1,1.2c1.9,1.3,4.1,2.3,5.9-0.3c0.4,1.4,0.8,1,1.4,0.1c-0.1,1,0.7,0.8,1.3,0.9c0.6-0.1,1.4,0.3,1.3-0.7
		c0-0.1-0.8-0.3-1.2-0.3c-0.3-0.2-0.4-0.3-0.7-0.5c-0.3-0.3-0.4-0.6-0.6-0.9c3.1-0.3,6.2-0.5,9.4-0.8c0,0.4-0.1,0.8-0.2,1.2
		c-0.4,0.6-0.5,1.3,0.3,1.6c0.7,0.2,1.6,0.4,1.7-0.9l0.1-0.1c1.7,1.6,3.3,0.9,4.9-0.3l0.1,0c2,0.4,4.5,1.5,4.4-2.2
		c0-0.4,0-0.8,0-1.1c12.3-2.9,24-7.5,35.3-13.2c3.4-1.7,5.9-5.4,8.2-8.8c3.5-5,7.2-10.1,9.7-15.8c1.1,1,0.5,4.8,3.7,2.4
		c0.8-0.5,1.5-1,2.3-1.5c3.4,5.9-0.7,10.2-3.3,14.8c-1.1,1.8-2.8,3.2-4.5,4.9c2.8,1,4.2-0.6,5.3-2.4c2-3,4.1-6,6-9.1
		c0.8-1.3,1.4-2.7,3.3-2.1c1.8,0.6,1.2,2.2,1,3.4c-0.8,4.6-3.4,8.5-6.5,11.7c-2,2.1-3.1,4.1-3.2,6.7l0-0.1c-1.1-0.9-2.5-2.6-3.5-0.7
		c-1,2-2.6,1.6-3.4,1.1c-1.3-0.8,0.1-2.3,0.4-3.4c0.4-1.1,1.1-2,1.5-3.5c-4.1,2.4-8.8,1.1-13,2.9c-4.6,1.9-9.3,4-13.9,6.1
		c-0.4,0.2-0.9,0.3-1.3,0.5c-0.5,0.4-1.1,0.8-1.5,1.1c-3.6-0.1-3.5,1.4-1.7,3.8c-0.8,0.8-1.4,1.6-2.2,2.4c-0.7,0.3-1.1,0.8-0.3,1.4
		c1.1,0.9-0.4,2.6,1.1,3.5c-3.3-4.9-6.9-4.5-9.4,0.8c-0.5-1.3-2-2.1-2.7-1.2c-2.1,2.7-5,1.1-7.2,2c-0.9,0.3-2.8-0.2-2.3,1.6
		c0.2,1.2,1.2,2.5,2.9,2.2c1.9-0.3,4-1.1,6-1c3.2,0.3,3.9-1.2,3.5-3.8c1.3,1.9,1.3,1.9,6.1,3.7c-3.4,3.7-10.7,4.3-16.8,5.5
		c-2.1,0.5-4.3,1.8-6.7,0.8c-1.4-0.7-2.6,0.1-3,0.8c-0.5,0.9,0.9,1.6,1.7,2.1c5.1,3,9,7,10.5,13.1c0.6,2.6,0.4,5.1-0.6,8
		c-4.5-6-4.5-15.5-14.6-17.5c3.1,4.8,4.2,10,5.7,15c0.6,2.1,0.7,4.2-0.1,6.3c-0.6,1.7-1.5,2.9-3,0.7c-2.3-3.5-2.5,0-3.4,1.1
		c-1.3-3-0.1-6.3-1.6-9.2c-0.1-0.6,0.7-1.6-0.6-1.7c-0.9,0-1,1-1.2,1.7c-2,7-3.8,14-5.7,21c-0.3,0.9-0.2,2-1.2,2.6
		c-1,0.6-1-0.3-1.1-0.9c0-0.8,1.2-2-0.3-2.2c-1.2-0.2-1,1.2-0.9,2.2c-0.5,1.9-1,3.7-1.5,5.6c-2.7,0.5-4.9,1.4-4.8,4.9
		c3.4-2.2,7-3.8,9.6-7c0.5-0.4,0.9-0.8,1.3-1.1c0.3-0.3,0.6-0.5,1-0.8c0.5-0.4,0.9-0.8,1.3-1.1c0.6-0.5,1.1-1,1.8-1.5
		c4.3-4,9.9-5.5,15.2-7c17.3-5.2,33-13.1,45.7-26.1c5.5-5.7,11.6-10,19.1-12.6c5.5-1.9,9.5-5.8,11.5-11.5c0.1-0.3,0.1-0.8,0-1.2
		c0.1,0.3,0.1,0.7,0.3,0.9c0.2,0.2,0.7,0.3,0.9,0.3c1.6-1,1.8-3,3-4.4l0-0.1C394.4,210.2,397.9,208.6,399.9,204.8z M264,268.1
		c0.3,0.2,0.5,0.4,0.7,0.6c1.3,2.5,5.4,0.8,6,4.2c-1.9,1.2-3.5,0.8-5.5-0.2c-4.1-2.1-6.8-5.6-9.9-8.7c-5.4,5.8-10.1,12-17,15.8
		c-5,2.8-6,6.5-2.1,10.7c6.9,7.6,17.5,7.9,26.4,0.8c2.3-0.4,4-1.6,4.8-3.8c1.4-1.6,2.7-3.3,4.2-4.8c3.6-3.5,6.2-7.6,6.6-12.7
		c1.7-6.7,6.7-12.1,8-19.1c1.1-5.8-0.5-11-3.9-12.9c-3.1-1.7-9.7,0.7-13.2,4.8c1,1.1,1.9-1,2.8,0c-1,1.6-2.8,2.4-3.2,4.4
		c-0.2,0.3-0.5,0.6-0.8,0.9c-3.1,2.6-0.4,4.2,1.1,6c-1,0.8-4-2.5-3.3,1.7c0.3,1.8,2.8,2.6,2.4,5.5c-1.8-1.8-3.1-3.3-4.6-4.5
		c-0.9-0.8-2.1-2.2-3.1,0c-0.2,0.6-0.3,1.2-0.5,1.7c-1.5,1.3-3.6,2.5-1.1,4.7c0.9,1.2,1.6,2.5,3.2,2.6c0.3,0.2,0.5,0.4,0.6,0.7
		C262.2,267.9,262.6,268.4,264,268.1z M214.8,248.1c0.6,0.7,1.2,1.5,2.1,0.7c6.1-6.2,12.4-12.3,18.4-18.7c4.6-4.9,3.5-11.2-2.3-14.5
		c-6.6-3.7-13.4-1.2-19.3,1.2c-5.4,2.1-7.6,8.5-12.2,12.2c-5.9,4.7-9,12.4-16.4,15.6c-3.5,1.5-6.8,3.4-10.4,4.7
		c-2.9,1.1-2.9,2.2-0.7,4c6.4,5.2,13.2,8.7,21.7,5.2c3.8-1.5,7.8-2.6,11.6-3.9c0.7-0.2,2.1,0.7,1.4-1c-0.9-1.1-2.2-1.3-3.5-1.7
		c0.2-0.3,0.3-0.5,0.6-0.7c1.7,0.6,3.5,1.1,4.5-0.6c0.9-1.8-1.5-2-2.3-2.9c-2.3-2.7-4.8-5-7.2-7.5c-1.3-1.4-2.5-3-0.7-5.8
		c1.8,6.5,7.2,8.4,11.2,12c-1.4,1.3-0.1,2,0.7,2.5C212.8,249.7,214.1,249.8,214.8,248.1z M215.5,280.1c1.4,0.1,2.6,2.3,4.2,0.5
		c6.4-0.5,12.4-2,17.4-6.1c8.4-6.9,14.4-15.9,20.3-25.3c-6.5,3.3-12.7,4.1-17.8-2.1c-0.9-1.6-1.6-3.2-2.5-4.8
		c0.6-5.8,5.3-11.5,12.9-14.9c-2.6,2.5-4.8,4.1-6.4,6c-1.7,2.1-4.2,3.7-4.5,6.9c-0.3,5.9,1.5,7.5,10.2,8.6c1.3,0.2,3.1,0.6,3.7-0.5
		c0.8-1.3-0.2-2.7-1.2-3.8c-0.7-0.6-1.1-1.3-1.2-1.4c2.9,0,4.6,6.6,9,3.6c5.8-4.1,6.5-9.7,2.4-16.5c3.3,0.2,3.5,3.3,5.1,5.3
		c1-6.1-4-11.9-9.1-10.5c-1.8,0.5-3.1,0.2-4.4-0.1c-5.1-1.3-9.2,3.5-14.3,2.6c-0.6-0.1-2.5,2.5-2.6,3.9c-0.4,5.6,0,5.7-3.2,8.5
		c-3.5,3.2-7.4,6.2-10.8,9.6c-5.4,5.2-11.3,9.7-18.8,11.7c-2,0.5-3.6,1.6-4.2,3.8c-0.9,3.5-1.4,7.3,1.8,9.6
		C205.9,277.5,209.2,282.8,215.5,280.1z M52.1,251.6c-2.1,1.2-0.8,2.8-0.4,4c6.7,24.9,13.5,49.7,20.2,74.6c0.8,2.8,1.5,3.4,4.3,2.6
		c25.7-7.1,51.6-14.2,77.5-21.1c2.8-0.8,3.2-1.8,2.5-4.3c-4.3-15.4-8.5-30.8-12.6-46.4c-0.7-2.5-3-5-5.6-4.2
		c-5.4-1.9-8-1.4-12.3-3.3c-3.2-2.5-5.3-4.6-7.7-6.3c-1.7-6-0.7-1.2-2.1-7.4c-0.8-3.4-7.2-4.2-10.4-2.8c-5.8,2.5-12.9,1.9-17.9,7.3
		c-3.1,3.4-7.4-0.9-11.5,0.6c-6,2.2-12.4,3.5-18.5,5.2C55.7,250.5,53.8,251.1,52.1,251.6z M101.2,338.7c-0.4,1.4-0.6,2.4-0.9,3.3
		c-2.3,6.5-4.7,13.1-7.1,19.5c-0.7,1.9-0.6,3.8,0.3,5.2c1,1.5,2.6,0.2,3.8-0.2c5.8-1.5,11.4-3.2,17.2-4.5c2.3-0.5,3-1.4,2.2-3.6
		c-0.6-1.8-1.2-3.1-3.7-2.2c-3.7,1.2-7.5,2.1-11.9,3.4c1.7-5.1,3.3-9.7,4.8-14.1c1.2-3.4,2.7-6.8,3.5-10.3c0.7-3.2-0.4-5-4.2-3.8
		c-5.2,1.6-10.5,3.1-15.8,4.2c-2.3,0.6-2.9,1.5-2.3,3.8c0.6,2.3,1.7,2.8,3.9,2.1C94.1,340.6,97.5,339.8,101.2,338.7z M148.9,325.2
		c-0.9-1.6-2.6-2.5-4.7-2.8c-5.8-1-11.1,1.4-16.3,3.3c-2,0.7-0.6,2.4-0.4,3.4c2,7.8,4.4,15.6,6.4,23.5c0.7,2.7,1.1,4.1,4.8,3.2
		c4.1-1.1,2.7-3,1.8-5.3c-1.6-4.3-1.9-6.9,4-8.7C152.1,339.5,153.9,331,148.9,325.2z M120.4,327.9c-1.9-0.6-3.7,0.5-5.5,0.9
		c-2.1,0.6-0.9,2.1-0.6,3.1c2.2,8.4,4.7,16.8,6.8,25.2c0.7,3,2.2,2.6,4.2,1.9c1.8-0.6,3.8-0.4,2.8-3.7c-2.6-8.2-4.7-16.6-7-24.8
		C121,329.8,120.7,329.1,120.4,327.9z M354,199.3c5.4,0.4,5.9-3.7,8.5-7C357.5,193.1,357.1,197.3,354,199.3z M362.8,190.7
		c2.5-2.2,4.2-4.8,5.8-9.2C365.2,184.6,363.9,187.6,362.8,190.7z M288.5,266.2c-2.2,1.1-2.6,2.5-2.1,4.3c0.1,0.3,1,0.7,1.2,0.6
		C288.9,270,288.5,268.2,288.5,266.2z M327.7,212.4c2.1,0.8,3.2,0.4,3.8-1.2C330,210.7,328.9,211,327.7,212.4z M296.7,246.3
		c-0.3-0.2-0.6-0.4-0.9-0.6c-0.2,0.4-0.4,0.8-0.4,1.2c0,0.6,0.4,0.8,0.9,0.6C296.6,247.3,296.5,246.7,296.7,246.3z"/>
	<path class="st1" d="M154.5,234.7c-1.5-3.7-3-7.6-6.7-9.7c5.3,0.5,6.3,4.8,7.8,8.6C155.2,234,154.8,234.4,154.5,234.7z"/>
	<path class="st1" d="M335.9,202c0.4-0.7,1-1.5,1.4-2.2c3-0.4,5.2-2.3,7.6-4c0.1,0.1,0,0.3,0.1,0.3c0.2,0.1,0.4,0.2,0.6,0.3
		C343,199.3,340,201.7,335.9,202z"/>
	<path class="st1" d="M166.1,243.1c-1.3-5.1-2.1-8.8-3.2-12.6C165.7,233.1,166.6,236.6,166.1,243.1z"/>
	<path class="st1" d="M186.9,228.1c-2,0.6-2.4-0.2-2.7-1.5c-0.2-1.2-0.9-2.4-1.2-3.7c-0.3-1.2-2.7-0.6-2-2.5
		c0.1-0.3,0.8-0.7,1.3-0.7c1.5,0.3,2.1,1.5,2.6,2.8C185.6,224.2,186.2,226.1,186.9,228.1z"/>
	<path class="st1" d="M308.9,209.4c1.6,0.9,2.9-0.2,4.2-0.6c-1.4,3.9-5.4,2.6-8.3,4.5C305.8,210.6,305.8,210.6,308.9,209.4z"/>
	<path class="st1" d="M170.3,227.9c-0.5,1.7,1.3,2.7,1.3,4.3c-1.8,1.1-2.5-0.3-2.8-1.5c-0.4-1.5-0.5-3.1-0.8-5.6
		C169.2,226.6,169.7,227.3,170.3,227.9z"/>
	<path class="st1" d="M145.6,244.6c0.2,0.4,0.4,0.8,0.6,1.2c-2.9,0.4-5.5,2.8-8.8,1.4c0-0.4,0.1-0.7,0-1.1
		C140.2,245.6,143,245.2,145.6,244.6z"/>
	<path class="st1" d="M305.5,215.9c2.4-0.4,4.8-0.9,7.1-1.4c0,0.4,0,0.8,0,1.1c-1.3,1.3-3.7,0-4.4,2.2l-0.1,0
		c-0.5-1.7-1.8-0.4-2.7-0.7C305.4,216.7,305.5,216.3,305.5,215.9z"/>
	<path class="st2" d="M378.8,197.9c1.6,1.4,1.9,3.2,1,5.9C378.7,201.6,378.1,199.9,378.8,197.9z"/>
	<path class="st1" d="M137.5,247.2c-1.4,0.2-2.9,0.3-4.3,0.5c0-0.4,0-0.8,0-1.2c1.4-0.2,2.9-0.3,4.4-0.4
		C137.6,246.5,137.5,246.9,137.5,247.2z"/>
	<path class="st1" d="M301.4,216.4c1.4-0.2,2.8-0.3,4.2-0.4c0,0.4-0.1,0.8,0,1.2c-0.8,0.1-1.7,0.1-2.2,1.1l-0.1,0.1
		c-0.4-1-1.4-0.3-2-0.7C301.2,217.2,301.3,216.7,301.4,216.4z"/>
	<path class="st1" d="M133.2,247.7c-1.2,0.5-2.4,0.9-4-0.6c1.7-0.2,2.8-0.4,4.1-0.6C133.2,246.9,133.2,247.3,133.2,247.7z"/>
	<path class="st2" d="M210.1,189.2c0.3,0.1,0.7,0.1,0.8,0.1c0.3,0.4,0.8,0.8,0.7,1.1c-0.2,1-0.7,0.2-0.8,0
		C210.5,190.1,210.4,189.7,210.1,189.2z"/>
	<path class="st1" d="M222.2,130c-0.2,0.3-0.3,0.5-0.5,0.8c0.1,0,0.4,0,0.5,0c0.2-0.2,0.3-0.5,0.5-0.8
		C222.4,130,222.3,130,222.2,130z"/>
	<path class="st2" d="M308.7,178.3c-0.1-0.9,0.3-1.5,1.1-1.8c0.1-0.1,0.3,0,0.4,0c-0.4,0.6-0.8,1.3-1.2,1.9
		C309.1,178.4,308.7,178.3,308.7,178.3z"/>
	<path class="st2" d="M356.7,176.1c0.1,0.9-0.4,1.6-1.2,2c-0.2,0.1-0.5-0.1-0.8-0.1c0.5-0.7,1-1.3,1.5-2L356.7,176.1z"/>
	<path class="st1" d="M288.2,216.7c1.3,0,2.7-0.4,3.9,0.4c-0.3,0.3-0.5,0.6-0.8,0.8c-0.2,0.2-0.5,0.5-0.8,0.6
		c-0.7-0.2-1.4-0.5-2.1-0.7C288.3,217.4,288.2,217.1,288.2,216.7z"/>
	<path class="st1" d="M198.1,146c-0.4-0.7-0.5-1.5,0-2.2c0.1-0.1,0.6,0.1,0.7,0.2c0.1,0.8,0.8,1.8-0.8,2
		C198.1,145.9,198.1,146,198.1,146z"/>
	<path class="st2" d="M229.4,161.4c0.2,0.4,0.4,0.8,0.7,1.3C228.9,162.7,229.2,162,229.4,161.4C229.4,161.5,229.4,161.4,229.4,161.4
		z"/>
	<path class="st2" d="M231,166.5c-0.2-0.4-0.4-0.8-0.7-1.3c0.2-0.1,0.5,0,0.6,0C231.1,165.7,231.1,166.2,231,166.5z"/>
	<path class="st2" d="M231.2,166.5c0.2,0.4,0.4,0.8,0.6,1.2c-0.2,0.1-0.4,0.1-0.7,0.1C231.1,167.4,231.1,167,231.2,166.5
		C231,166.5,231.2,166.5,231.2,166.5z"/>
	<path class="st1" d="M141.8,248.5c-0.2,0.4-0.4,0.8-0.6,1.3c0,0-0.4,0-0.4-0.2c0-0.4,0-0.8,0.2-1.2
		C140.9,248.4,141.4,248.6,141.8,248.5z"/>
	<path class="st2" d="M330.2,192.7c-0.1,0.1-0.3,0.1-0.4,0.2c0.1-0.2,0-0.4,0.1-0.6c0.1-0.1,0.3,0,0.5,0
		C330.3,192.4,330.2,192.6,330.2,192.7z"/>
	<path class="st2" d="M294.7,273.2c-0.6,0.5-1.1,1-1.8,1.5C293,273.5,293.6,273.1,294.7,273.2z"/>
	<path class="st1" d="M400,204.8c0.2-0.1,0.4-0.3,0.6-0.4c-0.2-0.1-0.4-0.2-0.6-0.2C400,204.3,399.9,204.5,400,204.8
		C399.9,204.8,400,204.8,400,204.8z"/>
	<path class="st2" d="M233.4,177.5c-0.5-0.6-0.9-1.4-0.4-2.2l0.4,0c0.4,0.7,0.7,1.3,0.4,2.2L233.4,177.5z"/>
	<path class="st2" d="M361.8,177.3c0,0.8-0.1,1.6-1.2,1.5c0-0.6,0.2-1.1,0.2-1.6C361.1,177.2,361.4,177.2,361.8,177.3z"/>
	<path class="st2" d="M192.4,184.4c0-0.6,0.3-0.9,0.9-0.8C193,183.9,192.7,184.2,192.4,184.4z"/>
	<path class="st2" d="M232.3,170.4l-0.3-0.2l0.3-0.1L232.3,170.4z"/>
	<path class="st2" d="M232.9,172.7c-0.1,0-0.4,0-0.4-0.2c-0.1-0.1,0-0.3,0-0.4c0.1,0,0.4,0,0.5,0.1
		C233,172.3,232.9,172.5,232.9,172.7z"/>
	<path class="st1" d="M291.9,217.1c0.2,0.4,0.4,0.6,0.6,0.9c-0.2,0.2-0.5,0.4-0.8,0.6c-0.2-0.2-0.4-0.5-0.6-0.8
		C291.5,217.7,291.7,217.5,291.9,217.1z"/>
	<path class="st2" d="M260.4,204.7c-0.3-0.1-0.6-0.1-1-0.2c0.3-0.1,0.7-0.2,1-0.3C260.5,204.4,260.4,204.6,260.4,204.7z"/>
	<path class="st2" d="M336.7,208.6c0.4-0.2,0.9-0.3,1.3-0.5C337.7,208.7,337.3,208.8,336.7,208.6z"/>
	<path class="st2" d="M321.1,241.1c0-0.3-0.1-0.6-0.1-0.9c0.8,0.1,0.5,0.5,0.2,0.9L321.1,241.1z"/>
	<path class="st2" d="M320.9,242.4c0-0.4,0.1-1,0.1-1.4l0.1,0c0,0.5,0,0.9-0.1,1.4C321.1,242.5,320.9,242.4,320.9,242.4z"/>
	<path class="st2" d="M320.8,243.9c0-0.4,0-0.9,0.1-1.4l0.3,0C321.4,243.1,321.4,243.5,320.8,243.9z"/>
	<path class="st2" d="M320.8,243.9c0.1,0.2,0.1,0.4,0.2,0.7C320.1,244.6,320.8,244.2,320.8,243.9z"/>
	<path class="st2" d="M320.9,247.3c0,0.1,0,0.3-0.1,0.5c-0.1,0-0.4,0-0.5-0.1c-0.1-0.1,0-0.3,0-0.4
		C320.5,247.2,320.7,247.3,320.9,247.3z"/>
	<path class="st1" d="M369.8,205.7l-0.1,0l0.3-0.1C369.9,205.6,369.8,205.7,369.8,205.7z"/>
	<path class="st2" d="M415.7,167c0,0.4-0.2,0.9-0.1,1.4c-0.3,0-0.5-0.1-0.7-0.1c0-0.4,0-0.9,0-1.3C415.1,167,415.4,167,415.7,167z"
		/>
	<path class="st2" d="M415.4,171.3c-0.2,0.4-0.3,0.7-0.5,1.1c-0.2-0.4-0.2-0.7-0.4-1.1C414.8,171.2,415.1,171.3,415.4,171.3z"/>
	<path class="st2" d="M331.1,217.1c-0.8-0.6-0.4-1,0.3-1.4C331.3,216.2,331.2,216.7,331.1,217.1z"/>
	<path class="st1" d="M285.7,216.6c0.6,0,1.1,0,1.6,0.1c-0.1,0.3-0.3,0.8-0.4,1.1c-0.5,0-0.9,0-1.4,0
		C285.6,217.4,285.6,216.9,285.7,216.6z"/>
	<path class="st2" d="M430.7,162.7c0,0.5,0,0.9-0.1,1.5c-0.3,0-0.6-0.1-0.9-0.2c0-0.4,0.2-0.9,0.1-1.4
		C430.1,162.6,430.4,162.6,430.7,162.7z"/>
	<path class="st1" d="M390.5,211.7l-0.2-0.1L390.5,211.7C390.5,211.5,390.5,211.7,390.5,211.7z"/>
	<path class="st1" d="M287.3,216.7c0.3-0.1,0.6-0.1,0.8,0.1c0,0.4,0.1,0.7,0.1,1.1c-0.4,0-1-0.1-1.4-0.1
		C287.1,217.4,287.2,217.1,287.3,216.7z"/>
	<path class="st2" d="M233.8,177.4c0,0.3,0,0.6,0.1,0.9c-0.8-0.1-0.7-0.5-0.4-1C233.4,177.5,233.8,177.4,233.8,177.4z"/>
	<path class="st2" d="M291.6,275.7c-0.3,0.3-0.6,0.5-1,0.8C290.6,275.8,290.9,275.6,291.6,275.7z"/>
	<path class="st2" d="M239.5,247.1c-1.3,1.6-2.4,1.1-3.5-0.3c-1-1.2-2.6-2.6-2.2-4.2c0.4-1.8,2.2,0.6,3.3-0.3
		C237.9,243.9,238.7,245.5,239.5,247.1z"/>
	<path class="st3" d="M362.8,190.7c1.1-3.1,2.3-6.1,5.8-9.2C367,185.8,365.3,188.5,362.8,190.7z"/>
	<path class="st2" d="M308.2,218c0.7-2.3,3.2-1,4.4-2.2C312.7,219.4,310.3,218.3,308.2,218z"/>
	<path class="st3" d="M288.5,266.2c0,1.9,0.4,3.6-1.1,4.8c-0.2,0.1-1-0.3-1.2-0.6C285.8,268.8,286.3,267.4,288.5,266.2z"/>
	<path class="st3" d="M214.8,248.1c-0.6,1.7-1.9,1.6-3.1,0.8c-0.9-0.6-2.2-1.2-0.7-2.5l-0.2,0.1c0.3,1,0.9,1.5,1.9,0.9l0.1,0
		C213.4,247.5,214.1,247.9,214.8,248.1z"/>
	<path class="st3" d="M262.2,265.8c-0.7-1-1.2-2-0.2-3c0.3,0.1,0.6,0.1,0.9,0.3c0.3,0.9,0.4,1.9,0.7,2.8l0-0.1
		c-0.3,0.3-0.5,0.5-0.8,0.7C262.6,266.2,262.5,266,262.2,265.8z"/>
	<path class="st2" d="M262.8,266.5c0.3-0.3,0.5-0.4,0.8-0.7c0.4,0.5,0.9,1.1,1.3,1.7c-0.3,0.3-0.5,0.5-0.8,0.7
		C262.6,268.4,262.2,267.9,262.8,266.5z"/>
	<path class="st2" d="M327.7,212.4c1.3-1.5,2.4-1.7,3.8-1.2C330.9,212.9,329.9,213.3,327.7,212.4z"/>
	<path class="st2" d="M301.2,217.6c0.6,0.4,1.6-0.3,2,0.7c0,1.2-1,1.1-1.7,0.9C300.6,219,300.8,218.2,301.2,217.6z"/>
	<path class="st2" d="M296.7,246.3c-0.1,0.3-0.1,1-0.5,1.2c-0.4,0.3-0.9,0.1-0.9-0.6c0-0.4,0.2-0.8,0.4-1.2
		C296.1,245.9,296.3,246.1,296.7,246.3z"/>
	<path class="st3" d="M206.4,151.8c0,0.8,0,2.1-0.8,2c-1.3-0.2-0.5-1.4-0.4-2.2C205.6,151.6,205.9,151.7,206.4,151.8z"/>
	<path class="st3" d="M295.2,251.6c0.1-0.8,0.1-1.7,1.2-1.7c1.3,0,0.5,1.1,0.6,1.7C296.4,251.6,295.9,251.5,295.2,251.6z"/>
	<path class="st3" d="M285.9,274.2c-0.1-0.9-0.3-2.2,0.9-2.2c1.5,0.2,0.3,1.4,0.3,2.2C286.8,274.3,286.4,274.3,285.9,274.2z"/>
	<path class="st2" d="M207.1,254.7c0.5-0.4,1-0.7,1.4-1C209.1,255.3,207.7,254.5,207.1,254.7z"/>
	<path class="st3" d="M257.7,210.2c-0.5-0.1-1.1-0.2-1.6-0.4c0.3-0.8,1-1.2,1.8-1.3C257.8,209.1,257.7,209.7,257.7,210.2z"/>
	<path class="st2" d="M291.1,217.9c0.2,0.2,0.4,0.5,0.6,0.8c-0.6,0.9-1.1,1.2-1.4-0.1C290.6,218.4,290.9,218.1,291.1,217.9z"/>
	<path class="st3" d="M264,268.1c0.3-0.3,0.5-0.4,0.8-0.7c0.5,0.5,0.3,0.9-0.1,1.3C264.5,268.5,264.2,268.3,264,268.1z"/>
	<path class="st2" d="M293.2,218.5c0.4,0.2,1.1,0.2,1.2,0.3c0.1,1-0.8,0.6-1.3,0.7C293.2,219.2,293.2,218.8,293.2,218.5z"/>
	<path class="st2" d="M291.8,218.7c0.2-0.2,0.5-0.4,0.8-0.6c0.3,0.2,0.5,0.3,0.7,0.5c-0.1,0.3-0.1,0.8-0.2,1.1
		C292.5,219.5,291.6,219.7,291.8,218.7z"/>
	<path class="st1" d="M106.2,275.9c2.3,6.6,7,14,8.3,22.6c0.7,4.9-3.5,9.3-8.8,10.2c-5.3,0.8-10.4-2.6-11.4-7.9
		c-1.2-6.4-2.4-12.8-3.2-19.1c-0.6-4.2,1-7.7,5-9.3C99.5,270.8,102.8,271.2,106.2,275.9z M99.7,290.6c-1.2,0.3-0.4,1.4-0.2,2.3
		c0.7,2.7,1.4,5.4,2,8.1c0.5,2.7,1.4,3.7,4.6,3c3.6-0.9,2.2-2.6,1.8-4.6c-0.7-2.2-1.4-4.5-1.7-6.7
		C105.5,287.9,102.6,289.9,99.7,290.6z"/>
	<path class="st1" d="M91.4,250.1c0.7-1.6-2.6-3-0.9-4.2c1.7-1.2,4.2-1.5,6.4-2c1.1-0.3,1.3,0.6,1.5,1.5c0.2,1.2-0.2,1.8-1.3,2.2
		C95.1,248.4,92.5,247.8,91.4,250.1z"/>
	<path class="st1" d="M100.5,254.2c0.7,1.8,1.6,3.1-0.4,3.3c-2.3,0.2-4.5,2.6-6.9,0.7c-0.3-0.2-1.5-2.1,0.5-2.7
		C96,254.8,98.3,253.4,100.5,254.2z"/>
	<path class="st1" d="M102.8,267.8c-2.1,0-4.3,2.3-6.7,0.5c-0.8-0.6-1.2-2.4,0.3-2.7c2.3-0.6,4.5-2.4,6.9-1
		C104.1,265.3,104.2,266.8,102.8,267.8z"/>
	<path class="st1" d="M87.2,262.6c2.3,0.1,4.5-2.5,7.2-0.7c0.4,0.3,0.9,2.1-0.4,2.4c-2.2,0.4-4.5,2.4-6.9,1
		C86.3,264.9,86.1,263.6,87.2,262.6z"/>
	<path class="st1" d="M91.2,250.1c-0.8,1.3,2,3-0.1,3.9c-2,0.9-4.4,1.2-6.6,1.5c-0.8,0.1-0.6-1-0.8-1.6c-0.5-1.2,0.5-1.2,1.3-1.6
		C87,251.3,89.5,251.8,91.2,250.1C91.4,250.1,91.2,250.1,91.2,250.1z"/>
	<path class="st1" d="M234.7,262.5c-3.3-1.7-6.4-3.5-8.5-6.7c-1.1-1.7-2-3,0.2-4.6c2.4-1.9,2.6,0.7,3.5,1.7
		c3.4,3.7,7.4,6.5,11.3,9.6C239,263.6,236.9,261.9,234.7,262.5z"/>
	<path class="st2" d="M202.9,266.6c0.1,0.4,0.2,0.7,0.2,1c-0.3-0.1-0.8-0.1-1-0.4c-0.1-0.2-0.2-0.5-0.2-0.9
		C202.2,266.4,202.6,266.5,202.9,266.6z"/>
	<path class="st2" d="M225.8,267.6c1.2-0.3,1.6,0.6,1.8,1.6C226.9,268.7,226.4,268.1,225.8,267.6
		C225.8,267.5,225.8,267.6,225.8,267.6z"/>
	<path class="st2" d="M221.9,271.7c1.3,0.2,2,1.1,2.7,2.1l0-0.1c-1.3,0.3-1.9-0.7-2.7-1.4C221.8,272.2,221.9,272,221.9,271.7z"/>
	<path class="st2" d="M226.6,274.5c0.8,0,1.5,0.1,1.5,1.1c-0.6-0.2-1-0.3-1.6-0.5C226.6,275,226.6,274.7,226.6,274.5z"/>
	<path class="st2" d="M224.5,273.8c1-0.4,1.5,0.2,2.1,0.6c0,0.1,0,0.4-0.1,0.6C225.6,275.1,225.1,274.4,224.5,273.8
		C224.6,273.8,224.5,273.8,224.5,273.8z"/>
	<path class="st2" d="M207.2,264.5c0-0.5-0.7-1.3,0.1-1.4c0.6-0.1,0.7,0.7,0.7,1.4C207.7,264.5,207.4,264.5,207.2,264.5z"/>
	<path class="st2" d="M232.3,265.2c-0.7-0.1-1.3-0.3-1-1.1c0-0.1,0.8,0,1.2,0C232.4,264.5,232.3,264.8,232.3,265.2z"/>
	<path class="st1" d="M220.8,235.2c-0.8,1.8-1.8,2.2-4,1.5c-5.4-1.7-8.7-5.1-10.4-10.2c3.7,2.1,5,7.3,10.2,7.2l-0.1-0.2
		c0.3,1.4,1.2,1.1,2,0.5C219.4,234.4,220.1,234.8,220.8,235.2z"/>
	<path class="st1" d="M205.5,251.3c1.6-1.6-1.8-2.3-0.7-3.9C207.1,248.4,205.2,250.1,205.5,251.3z"/>
	<path class="st1" d="M210.3,243.6c-1.2-0.6-1.9-1.2-2-2.2C209.6,241.3,209.8,242.3,210.3,243.6z"/>
	<path class="st2" d="M212.6,247.3c-1,0.6-1.6,0.1-1.9-0.9C211.8,245.5,212.5,245.7,212.6,247.3z"/>
	<path class="st2" d="M211.2,225.8c0.1-0.5,0.2-0.9,0.8-0.7c0.1,0,0.1,0.6,0.1,0.8C211.8,225.9,211.5,225.8,211.2,225.8z"/>
	<path class="st2" d="M239.6,288.3c-0.8-0.9-1.6-1.9-2.6-3.1C238.9,285.8,239.3,287.1,239.6,288.3z"/>
	<path class="st2" d="M243.8,290.6c0.2,0.4,0.3,0.7,0.4,1c-0.3-0.1-0.8-0.2-1-0.4c-0.3-0.3-0.3-0.8-0.5-1.2
		C243,290.2,243.4,290.3,243.8,290.6z"/>
	<path class="st2" d="M246.6,292.8c0.1,0.1,0.3,0.2,0.3,0.2c0.2,0.4,0.1,0.6-0.3,0.4c-0.1,0-0.2-0.2-0.2-0.4
		C246.3,293,246.5,292.9,246.6,292.8z"/>
	<path class="st2" d="M263.5,265.9c-0.3-0.9-0.4-1.9-0.7-2.8C264.5,263.8,265.1,264.6,263.5,265.9z"/>
	<path class="st4" d="M276.2,200.3c5.8-5.8,12.2-10.9,18.2-16.6C289.9,190.9,283.5,196.1,276.2,200.3z"/>
	<path class="st4" d="M175.5,226.2c1.4,2.2-3,5.5,1.3,7.1c-0.3,0.4-0.4,0.9-0.9,1.1c-0.7,0.4-1.5,0.5-2.2-0.3
		c-0.6-0.9-0.7-2.3-2.3-2c0-1.6-1.8-2.6-1.3-4.3c2.3-0.8,0.1-2.8,1-4C173.2,224.1,174.3,225.4,175.5,226.2z"/>
	<path class="st4" d="M309.1,178.4c-4.1,8.3-10.2,14.8-19.1,18.3c4.1-3.4,8.2-6.7,12.1-10.3c2.5-2.3,4.4-5.4,6.6-8
		C308.7,178.3,309.1,178.4,309.1,178.4z"/>
	<path class="st4" d="M308.9,209.4c5.9-5,11.7-9.8,17.6-14.8c-1.8,4.7-5.7,7.2-9.5,9.9c-1.7,1.1-4.1,1.5-3.9,4.3
		C311.8,209.2,310.6,210.2,308.9,209.4z"/>
	<path class="st4" d="M181.2,202.7c3,1.1,5.1,3.1,6.3,5.8c1,1.9,1.9,3.9,4.4,4.4c0.8,0.1,2.2-0.4,1.9,1.3c-0.2,1.1-0.6,2.4-1.3,3.1
		c-1,0.8-1.8-0.4-2.3-1.2C187.1,211.5,184.2,207.2,181.2,202.7z"/>
	<path class="st4" d="M335.9,202c-0.9,0.8-1.5,2.6-3.1,1.4c-1.4-1-0.3-2,0.5-2.9c3.6-4.6,8.9-7.2,13.3-10.9c-2,4.4-7.2,5.8-9.1,10.1
		C336.9,200.5,336.5,201.3,335.9,202z"/>
	<path class="st4" d="M326.5,200.9c-0.8,2.2,0.9,3.9-1.5,4.9c-2.4,1-4.5,2.7-7.2,2.8c-0.4,0-0.9-0.5-1-0.9c-0.1-0.9,0.7-1.4,1.3-1.9
		c0.2-0.1,0.2-0.2,0.4-0.2C320.9,204.2,323.2,202.8,326.5,200.9z"/>
	<path class="st4" d="M314.2,197.5c4-4.9,8.7-9.1,12.8-13.8C323.7,189.2,319.6,194,314.2,197.5z"/>
	<path class="st4" d="M168.7,191.7c-0.4,0.2-0.7,0.4-1,0.5c-1.1-2.6-3.5-4.1-5.4-6.2c-0.5-0.6-1.7-1.2-1.6-1.7
		c0.1-0.8,1.7-1.4,2-0.9C164.6,186.4,169.7,186.8,168.7,191.7z"/>
	<path class="st4" d="M141.2,221.2c-0.4,0.2-0.6,0.4-1,0.6c-3.2-1.2-4.7-4.5-7.5-6.4c1-1.1,3.3-1.8,3.6-1.3
		C137.7,216.5,142.2,217.1,141.2,221.2z"/>
	<path class="st4" d="M371.7,177.8c-0.8,0.5-1.5,1-2.3,1.5c-0.7-3.5,2-5.6,3.7-7.9c0.8-1.1,1.7,0,1.7,1.1
		C375,175,374.8,177.2,371.7,177.8z"/>
	<path class="st4" d="M335.6,193.3c2.6-3.5,5.4-7,8.1-10.6C342.2,187.1,339.9,191.1,335.6,193.3z"/>
	<path class="st4" d="M234.8,119.7c-0.9,4.1-5.6,5-5.4,9c0,0.8-1.4,0.5-2.1,0c-0.9-0.6-0.6-1.5,0-2
		C229.8,124.5,231,121.1,234.8,119.7z"/>
	<path class="st4" d="M260.4,204.2c0.8-0.5,1.9,1.7,2.1-0.2c0.3-2.7,2.9-2.7,4.5-4.7c-2.5,7.8-2.5,7.9-6.7,5.4
		C260.4,204.6,260.5,204.4,260.4,204.2z"/>
	<path class="st4" d="M316.7,184c-5,4.2-9.9,8.3-14.9,12.5C306.2,191.5,312.1,188.4,316.7,184z"/>
	<path class="st4" d="M154.9,236.5c-2.6,3.4-2.6,9.1-8.7,9.4c-0.2-0.4-0.4-0.8-0.6-1.2c3.2-2.2,5.7-5,7.8-8.3
		C153.9,236.4,154.5,236.4,154.9,236.5z"/>
	<path class="st4" d="M178.6,184.6c-0.2,0.2-0.5,0.5-0.7,0.7c-1.7-3.7-4.6-6.6-7.2-10.4C175.3,177.1,177.6,180.2,178.6,184.6z"/>
	<path class="st4" d="M220.1,143.4c2.6-5.2,5.9-7.9,9.7-10.4C226.3,135.7,224.5,139.8,220.1,143.4z"/>
	<path class="st4" d="M175.5,226.3c0.4-1.7,0.7-4,2.6-4.2c1.7-0.2,1.6,2.1,2.3,3.3c0.4,0.7,0.5,1.7-0.3,2.1
		C178.1,228.5,177,226.5,175.5,226.3C175.5,226.2,175.5,226.3,175.5,226.3z"/>
	<path class="st4" d="M139.3,173.4c-0.2,3.7-2.1,6.3-5.2,8.1C135.1,178.4,136.7,175.6,139.3,173.4z"/>
	<path class="st4" d="M249.4,115.2c-2.1,3.2-4.5,6.3-8.5,9.1C242.5,119.3,246.3,117.5,249.4,115.2z"/>
	<path class="st4" d="M203,198c-2.1-2.5-4.1-4.8-6.9-8.2C201,191.4,202.2,194.7,203,198z"/>
	<path class="st4" d="M185.1,214.9c-3.1-3.7-6.1-7.3-9.2-11c4.6,2.2,7.3,6.2,10.1,9.9C185.7,214.2,185.4,214.6,185.1,214.9z"/>
	<path class="st4" d="M289.3,277.7c-2.5,3.2-6.2,4.8-9.6,7c-0.2-3.5,2.1-4.4,4.8-4.9C286.6,280.3,287.4,277.6,289.3,277.7z"/>
	<path class="st4" d="M345.7,196.4c-0.2-0.1-0.5-0.1-0.6-0.3c-0.1-0.1-0.1-0.2-0.1-0.3c1.5-2.4,3.6-4.2,6.6-5.8
		C350.9,194,347.8,194.7,345.7,196.4z"/>
	<path class="st4" d="M185.9,194.7c4.3,0.7,5.5,4.5,7.6,7.6C191,199.7,188.3,197.2,185.9,194.7z"/>
	<path class="st4" d="M150.2,216.3c-0.1,1.9-1.8,2.2-3,3.1c-1.9-1.9-4.9-2.9-5.6-6.1C144.8,213.6,146.2,219,150.2,216.3z"/>
	<path class="st4" d="M264.2,195.1c-0.1-0.8-0.2-1.7,0.7-2.1c2.1-1.8,4.3-3.6,6.4-5.3C269.3,190.5,267.3,193.4,264.2,195.1z"/>
	<path class="st4" d="M199.1,201.2c-2.4-2.8-4.8-5.7-7.2-8.6c0.2-0.1,0.3-0.3,0.4-0.3c2.4,2.8,4.8,5.7,7.1,8.5
		C199.2,200.9,199.2,201.1,199.1,201.2z"/>
	<path class="st4" d="M279.8,186.4c1.5-2.1,3.1-4.1,4.7-6.1C284.4,183.5,282.5,185.4,279.8,186.4z"/>
	<path class="st4" d="M215.3,191.3c-0.4,2-0.7,3.4-1,5.2C212.4,194.4,211.4,192.8,215.3,191.3z"/>
	<path class="st4" d="M188.6,187.3c-1-1.4-1.9-2.7-2.9-4.1c0.2-0.1,0.4-0.3,0.5-0.4c1.4,1.2,2.8,2.2,4.2,3.4
		C189.8,186.6,189.2,186.9,188.6,187.3z"/>
	<path class="st4" d="M333.6,213.4c-1.9-2.3-1.9-3.8,1.7-3.8C337.4,212.2,337.2,213.6,333.6,213.4z"/>
	<path class="st4" d="M200.2,202.9c1,2.3,0.9,3.7-0.3,5.6C198.4,206.5,198.9,205,200.2,202.9z"/>
	<path class="st4" d="M360.7,177.1c1-2,1.2-4.3,3.6-6.3c-0.1,3-1.2,4.8-2.6,6.5C361.4,177.2,361.1,177.2,360.7,177.1z"/>
	<path class="st4" d="M340.8,177.9c0,2-0.5,3.3-3,4.6C338.8,180.3,339.3,179,340.8,177.9z"/>
	<path class="st4" d="M255.8,202.4c2.4-2,4.7-4,7-5.9C261.3,199.3,259,201.4,255.8,202.4z"/>
	<path class="st4" d="M286.1,178.5c0.4-1.7,0.9-3.1,3.2-4.5C288.6,176.3,288.2,177.9,286.1,178.5z"/>
	<path class="st4" d="M354,179.9c-0.4,1.6-0.7,2.8-2.2,3.7C351.2,181.5,352.3,180.7,354,179.9z"/>
	<path class="st4" d="M145.9,220.2c-0.8,1.3-1.7,2.3-3.4,1C143.5,219.9,144.5,219.3,145.9,220.2z"/>
	<path class="st4" d="M389.2,201c0.8,0.9,1.3,1.8,0.5,3.5c-1.2-1.1-1.2-2.2-0.7-3.5L389.2,201z"/>
	<path class="st4" d="M186.5,219.4c-0.4-0.2-0.8-0.4-1.1-0.7c-0.1-0.1,0.2-0.8,0.3-0.8c0.4,0,0.8,0.2,1.2,0.4
		C186.8,218.7,186.7,219,186.5,219.4z"/>
	<path class="st4" d="M173.1,237.3c-0.7,0.4-1.2,1.7-2.3,0.7c-0.2-0.2-0.2-1,0-1.2C171.7,235.9,172.4,236.9,173.1,237.3z"/>
	<path class="st4" d="M173.1,237.5c0.5-0.2,0.9-1.6,1.7-0.3c0.2,0.4,0,0.9,0,1.3C174.2,238.1,173.7,237.8,173.1,237.5
		C173.1,237.3,173.1,237.5,173.1,237.5z"/>
	<path class="st4" d="M359.3,171.8c-0.2,0.4-0.4,0.7-0.7,1.1c-0.1,0.1-0.6-0.2-0.6-0.3c0-0.4,0.2-0.8,0.3-1.3
		C358.6,171.5,358.9,171.6,359.3,171.8z"/>
	<path class="st4" d="M229.4,161.5c-0.3-0.5-0.7-1.1-1-1.6c0.2-0.1,0.5-0.2,0.6-0.1C229.5,160.2,229.8,160.7,229.4,161.5z"/>
	<path class="st4" d="M154.5,234.7c0.3-0.4,0.7-0.7,1-1.1c0.7,1.1,0,1.9-0.5,2.8c-0.4,0-1-0.1-1.5-0.1
		C153.4,235.6,153.7,235,154.5,234.7z"/>
	<path class="st4" d="M380.6,206.4c-0.2-0.1-0.6-0.1-0.6-0.1c0-0.5,0-0.9,0-1.3c0.2,0.1,0.6,0.1,0.8,0.3
		C380.9,205.6,381.1,206.1,380.6,206.4z"/>
	<path class="st4" d="M413.8,176.1c0-0.8-0.4-2.3,0.7-2.1c1.2,0.2,0.4,1.5,0.2,2.2C414.3,176.1,414,176.1,413.8,176.1z"/>
	<path class="st4" d="M388.2,195.2c-0.1-0.3-0.2-0.7-0.3-1c0.1,0.1,0.3,0.2,0.3,0.2C388.2,194.7,388.1,194.9,388.2,195.2
		C388.1,195.1,388.2,195.2,388.2,195.2z"/>
	<path class="st4" d="M342.4,174.9c0,0.4-0.2,0.8-0.3,1.3c-0.2-0.1-0.4-0.2-0.6-0.2C341.9,175.6,342.2,175.2,342.4,174.9z"/>
	<path class="st4" d="M424.1,150.7c-0.7-0.6-1-1.3-0.5-2.2C424,149.2,424.5,149.8,424.1,150.7C424,150.8,424.1,150.7,424.1,150.7z"
		/>
	<path class="st4" d="M388.8,197.3c-0.7-0.6-1.2-1.2-0.5-2.2l-0.1,0C388.7,195.8,389.2,196.4,388.8,197.3z"/>
	<path class="st4" d="M356.3,176c0.3-0.5,0.5-0.9,0.8-1.5c0.1-0.1,0.3,0,0.4,0c-0.3,0.5-0.5,0.9-0.8,1.5L356.3,176z"/>
	<path class="st4" d="M364.6,169c0.1-0.8,0.1-1.6,1.2-1.5c0,0.6-0.2,1.1-0.3,1.7C365.2,169.1,364.9,169.1,364.6,169z"/>
	<path class="st4" d="M175.2,221.3c0.1,0.3,0.2,0.5,0.3,0.8c-0.3,0-0.6,0.1-0.7-0.1c-0.1-0.2-0.2-0.5-0.3-0.8
		C174.7,221.3,174.9,221.2,175.2,221.3z"/>
	<path class="st4" d="M233,175.2c0-0.4,0-0.6-0.1-1c0.8,0,0.7,0.5,0.5,1L233,175.2z"/>
	<path class="st4" d="M342.5,174.8c-0.1-0.2,0-0.4,0-0.6c0.1,0.1,0.1,0.2,0.1,0.2C342.5,174.6,342.5,174.7,342.5,174.8
		C342.4,174.9,342.5,174.8,342.5,174.8z"/>
	<path class="st4" d="M365.5,169.1c0,0.6-0.2,1.2-0.9,1.1c0,0,0-0.8,0-1.2C364.9,169.1,365.2,169.1,365.5,169.1z"/>
	<path class="st4" d="M423.9,152.2c0,0.4-0.1,1-0.1,1.4l0.1,0C423.4,153.1,423.5,152.7,423.9,152.2z"/>
	<path class="st4" d="M423.7,153.6c-0.1,0.2,0,0.4-0.1,0.6c-0.1-0.1-0.1-0.2-0.1-0.3C423.7,153.8,423.7,153.7,423.7,153.6
		C423.8,153.5,423.7,153.6,423.7,153.6z"/>
	<path class="st4" d="M415.4,162.8c0.1-0.3,0.3-0.6,0.4-1c0,0.4,0.1,0.7,0.1,1.1C415.8,162.9,415.6,162.8,415.4,162.8z"/>
	<path class="st4" d="M416.1,162.8c0,0.4-0.1,1-0.1,1.4c-0.2-0.1-0.4,0-0.6-0.1c0-0.4,0.1-0.9,0.2-1.3
		C415.6,162.8,415.8,162.9,416.1,162.8z"/>
	<path class="st4" d="M423.8,144.4c0,0.4-0.1,1-0.1,1.4C423.8,145.3,423.9,144.9,423.8,144.4C423.9,144.3,423.8,144.4,423.8,144.4z"
		/>
	<path class="st4" d="M378.5,196.4c-0.2-0.5-0.1-0.9,0.6-0.7c0,0,0,0.6-0.1,0.8C379,196.5,378.5,196.4,378.5,196.4z"/>
	<path class="st4" d="M415.1,165.6c0-0.4,0.1-1,0.1-1.4c0.2,0.1,0.4,0,0.6,0.1c0,0.4-0.1,1-0.1,1.4
		C415.5,165.6,415.3,165.6,415.1,165.6z"/>
	<path class="st4" d="M378.8,197.9c0-0.5-0.1-0.9-0.2-1.4l0.4,0C378.9,197,378.8,197.5,378.8,197.9z"/>
	<path class="st4" d="M414.8,167c0.1-0.5,0.2-1,0.3-1.4c0.2,0.1,0.4,0,0.6,0.1c0,0.4,0,0.9-0.1,1.4C415.4,167,415.1,167,414.8,167z"
		/>
	<path class="st4" d="M423.7,145.8c0,0.4-0.1,1-0.1,1.4C423.7,146.7,423.7,146.2,423.7,145.8C423.8,145.7,423.7,145.8,423.7,145.8z"
		/>
	<path class="st4" d="M414.6,169.8c0-0.4,0.1-0.9,0.1-1.4c0.3,0,0.5,0.1,0.7,0.1c0,0.4,0,0.9-0.1,1.4
		C415.2,169.8,414.9,169.8,414.6,169.8z"/>
	<path class="st4" d="M414.5,171.3c0.1-0.5,0.1-1,0.2-1.5c0.3,0,0.6,0,0.8,0.1c0,0.4,0,0.9-0.1,1.4
		C415.1,171.3,414.8,171.2,414.5,171.3z"/>
	<path class="st4" d="M430.1,158.4c0.1-0.3,0.3-0.7,0.4-1c0.2,0.4,0.3,0.7,0.4,1.1C430.7,158.5,430.4,158.4,430.1,158.4z"/>
	<path class="st4" d="M423.9,144.3c-0.1-0.2,0-0.5-0.1-0.7c0.1,0.1,0.2,0.2,0.1,0.3C424,144.1,423.8,144.2,423.9,144.3
		C423.8,144.4,423.9,144.3,423.9,144.3z"/>
	<path class="st4" d="M423.6,147.2c0,0.4-0.1,1-0.1,1.4C423.6,148.1,423.6,147.6,423.6,147.2z"/>
	<path class="st4" d="M430.1,159.8c0-0.5,0-0.9,0-1.4c0.3,0,0.6,0,0.8,0.1c0,0.5,0,0.9-0.1,1.4C430.6,159.8,430.4,159.8,430.1,159.8
		z"/>
	<path class="st4" d="M430,161.3c0-0.4,0-0.9,0.1-1.4c0.3,0,0.6,0.1,0.8,0.1c0,0.4-0.1,1-0.1,1.4C430.5,161.2,430.2,161.2,430,161.3
		z"/>
	<path class="st4" d="M430.8,161.3c0,0.4-0.2,0.9-0.1,1.4c-0.3,0-0.6,0-0.8,0c0-0.4,0.1-1,0.1-1.4
		C430.2,161.2,430.5,161.2,430.8,161.3z"/>
	<path class="st4" d="M388.6,197.3c0.1,0.2,0.2,0.5,0.1,0.8C388,198,388.5,197.7,388.6,197.3C388.8,197.3,388.6,197.3,388.6,197.3z"
		/>
	<path class="st4" d="M414.5,176.2c-0.2,0.3-0.4,0.6-0.6,0.9c0-0.4-0.2-0.7-0.2-1C414,176.1,414.3,176.1,414.5,176.2z"/>
	<path class="st4" d="M429.6,165.4c0-0.4,0.1-1,0.1-1.4c0.3,0,0.6,0.1,0.9,0.2c0,0.4-0.2,0.9-0.1,1.4
		C430.2,165.5,429.9,165.4,429.6,165.4z"/>
	<path class="st4" d="M389,200.9c0-0.3-0.1-0.6-0.1-0.9c0.7,0.1,0.6,0.4,0.3,0.8C389.2,201,389,200.9,389,200.9z"/>
	<path class="st4" d="M429.4,166.9c0-0.4,0.2-0.9,0.1-1.4c0.3,0,0.6,0.1,0.8,0.1c0,0.4,0,0.9-0.1,1.4
		C430,166.9,429.8,166.8,429.4,166.9z"/>
	<path class="st4" d="M429.2,168.2c0-0.4,0.1-0.9,0.1-1.4c0.3,0,0.6,0,1,0.1c0,0.5-0.1,1-0.1,1.5
		C429.9,168.4,429.6,168.3,429.2,168.2z"/>
	<path class="st4" d="M429.1,169.7c0-0.4,0-0.9,0.1-1.4c0.3,0.1,0.7,0.1,1.1,0.2c0,0.4-0.2,0.9-0.2,1.3
		C429.7,169.7,429.4,169.7,429.1,169.7z"/>
	<path class="st4" d="M430,169.8c-0.2,0.3-0.3,0.7-0.6,1c0-0.4-0.2-0.7-0.3-1.1C429.4,169.7,429.7,169.7,430,169.8z"/>
	<path class="st4" d="M390.2,205.8c0,0.1,0,0.3,0,0.5c-0.1,0-0.4,0-0.5-0.1c-0.1-0.1,0-0.3,0-0.5
		C389.9,205.7,390.1,205.7,390.2,205.8z"/>
	<path class="st4" d="M423.9,152.1c-0.4-0.5-0.4-1,0.1-1.4C423.9,151.2,423.8,151.7,423.9,152.1
		C423.9,152.2,423.9,152.1,423.9,152.1z"/>
	<path class="st4" d="M264.8,267.4c1.3,0.2,0.9-3,2.8-1.5c2.9,2.2,6.6,2.4,9.7,4c-1.6,4.3-3.5-0.3-5.3,0.2c-0.8,2.4,0.6,3.4,3,3.7
		c-2.6,2.4-3-0.3-4.3-0.9c-0.6-3.4-4.7-1.8-6-4.2C265.2,268.2,265.4,267.8,264.8,267.4z"/>
	<path class="st4" d="M215.5,280.1c-2-2.4-4-4.7-6-7.1c0.2-0.1,0.3-0.3,0.5-0.4c3.2,2.6,6.5,5.3,9.8,8
		C218.2,282.4,216.9,280.4,215.5,280.1z"/>
	<path class="st4" d="M354,199.3c3.1-2.1,3.6-6.1,8.5-7C359.9,195.7,359.4,199.8,354,199.3z"/>
	<path class="st4" d="M262.7,291.3c-0.7-0.6-1.2-1.2-1.9-1.8c0.1-0.3,0.1-0.6,0.2-1.1c2.3,0.4,4.7,0.9,6.6-1.1
		C266.6,289.7,265,290.9,262.7,291.3z"/>
	<path class="st4" d="M260.4,256.8c2.6,0.7,3.2,3.3,4.9,4.9c-2.5-0.1-3.9-1.7-5.3-3.2C260.1,257.9,260.3,257.4,260.4,256.8z"/>
	<path class="st4" d="M286.9,217.7c0.4,0,1,0.1,1.4,0.1c0.7,0.2,1.4,0.5,2.1,0.7c-1.8,2.7-4,1.6-5.9,0.3c-0.7-0.5,0.6-0.7,1-1.2
		C286,217.7,286.4,217.7,286.9,217.7z"/>
	<path class="st4" d="M268.9,247.2c2,1.6,4,3.3,6,4.9c-0.1,0.3-0.2,0.8-0.3,1.2c-2.4-1.3-5-2.6-6.5-5.3
		C268.3,247.8,268.5,247.5,268.9,247.2z"/>
	<path class="st4" d="M258.9,263.1c1-0.3,1.9-2,3.1-0.4c-1.1,1-0.5,2.1,0.2,3C260.5,265.7,259.7,264.4,258.9,263.1z"/>
	<path class="st4" d="M303.2,218.3c0.5-0.9,1.4-0.9,2.2-1.1c0.9,0.3,2.2-0.9,2.7,0.7C306.6,219,305,219.8,303.2,218.3z"/>
	<path class="st4" d="M234.7,262.5c2.1-0.6,4.3,1.1,6.4,0c1.1-0.3,2.5-0.6,2.8,0.9c0.2,1-0.1,2.3-0.8,3.1c-0.6,0.7-1.5,0.1-2.4-0.6
		c-1.5-1.1-3.4-2.8-5.4,0c-0.5,0.7-2.2,0.2-3.1-0.6c0.1-0.3,0.2-0.7,0.2-1.1C233.5,263.9,235.2,264.8,234.7,262.5z"/>
	<path class="st4" d="M212.2,277.4c-5.1-1.3-6.4-4.7-8.2-7.4C206.3,272.1,208.7,274.3,212.2,277.4z"/>
	<path class="st4" d="M207.9,264.5c2.1,3.1,4.7,5.9,7,8.8c-3.2-2.4-6.3-4.8-7.8-8.8C207.4,264.5,207.7,264.5,207.9,264.5z"/>
	<path class="st4" d="M225.8,267.5c-3.7-1.2-5-4.6-6.6-7.8C221.4,262.4,223.6,265,225.8,267.5z"/>
	<path class="st4" d="M221.9,272.4c-1.9-0.4-2.9-1.7-3.3-3.9c1.2,1.1,2.3,2.1,3.4,3.3C221.9,272,221.8,272.2,221.9,272.4z"/>
	<path class="st4" d="M226.4,261.2c2.5,0.1,3.3,1.1,3.8,2.7C228.6,263.9,227.5,263.2,226.4,261.2z"/>
	<path class="st4" d="M205.5,251.3l0-0.1c-0.2,0.3-0.3,0.5-0.6,0.7c-3.4-2.1-6.4-4.7-9-7.6c-1.1-1.3-2.6-2.9-0.6-4.7
		c0.9-0.9,2.3-1.6,2.5,0.3c0.2,4.6,4.4,5.3,7,7.6C203.8,249,207.2,249.7,205.5,251.3z"/>
	<path class="st4" d="M220.8,235.2c-0.7-0.3-1.4-0.8-2.2-1c-0.6-0.3-1.1-1-2-0.5l0.1,0.2c-1.1-3.1-6.1-3.6-5.6-7.9
		c0.3,0,0.6,0.1,0.9,0.2c1.8,2.9,4.6,4.9,7.3,6.9C220.2,233.4,221.7,233.6,220.8,235.2z"/>
	<path class="st4" d="M214.7,248.1c-0.7-0.3-1.3-0.6-2-1c0.6-3.3,2.6-2.6,5.1-1.7C216.7,246.5,215.7,247.3,214.7,248.1z"/>
	<path class="st4" d="M246.7,278.2c3,2.6,5.9,5.2,8.9,7.8C251.5,284.6,248.9,281.7,246.7,278.2z"/>
	<path class="st4" d="M260.8,289.5c-1.3-0.3-2.8-0.5-3.6-2.2c1.7-0.4,2.6,0.7,3.7,1.2C260.9,288.9,260.8,289.2,260.8,289.5z"/>
	<path class="st4" d="M274.8,252.1c1.4,0.9,2.9,1.9,4.9,3.1c-3.1,1.4-3.7-1.2-5.2-1.9C274.6,252.8,274.7,252.5,274.8,252.1z"/>
	<path class="st4" d="M268.7,263.4c1.1,0.5,2.9,1,2.1,2.5c-0.4,0.9-1.4-0.6-2.3-1C268.6,264.2,268.7,263.8,268.7,263.4z"/>
	<path class="st2" d="M268.6,264.8c-1.4-0.3-2.3-1-2.6-2.4c1.3-0.5,1.9,0.6,2.7,1C268.7,263.8,268.6,264.2,268.6,264.8z"/>
	<path class="st1" d="M142.9,336c-1.7,1.4-3.6,2.6-5.7,1.4c-1.2-0.6-2-8.3-1.2-8.7c2.4-1,5-2,7.4,0.4
		C145.3,331.1,145.1,334,142.9,336z"/>
	<path class="st3" d="M216.7,233.6c0.8-0.4,1.4,0.3,2,0.5C217.7,234.6,217,235,216.7,233.6z"/>
</g>
</svg>
